<?xml version="1.0" standalone="no"?>
<!DOCTYPE svg PUBLIC "-//W3C//DTD SVG 20010904//EN"
 "http://www.w3.org/TR/2001/REC-SVG-20010904/DTD/svg10.dtd">
<svg version="1.0" xmlns="http://www.w3.org/2000/svg"
 width="1080.000000pt" height="1080.000000pt" viewBox="0 0 1080.000000 1080.000000"
 preserveAspectRatio="xMidYMid meet">
<metadata>
Created by potrace 1.11, written by Peter Selinger 2001-2013
</metadata>
<g transform="translate(0.000000,1080.000000) scale(0.100000,-0.100000)"
fill="#000000" stroke="none">
<path d="M5113 10789 c-1711 -89 -3281 -992 -4226 -2429 -742 -1130 -1031
-2495 -812 -3840 241 -1480 1103 -2803 2365 -3633 1130 -742 2495 -1031 3840
-812 1111 181 2140 712 2940 1515 416 417 750 881 1009 1399 506 1010 679
2163 496 3291 -241 1480 -1103 2803 -2365 3633 -959 630 -2093 936 -3247 876z
m322 -431 c15 -14 28 -38 31 -59 5 -31 1 -42 -24 -70 -25 -28 -37 -34 -72 -34
-34 0 -47 6 -66 28 -33 39 -33 99 1 132 32 33 93 34 130 3z m-498 -414 c94
-54 112 -196 35 -277 -39 -42 -75 -57 -132 -57 -179 0 -255 219 -114 326 62
48 136 50 211 8z m779 -369 c68 -43 107 -108 112 -190 10 -156 -91 -265 -246
-265 -59 0 -75 4 -122 33 -76 45 -113 107 -118 198 -4 59 0 77 22 123 46 94
123 138 232 134 59 -3 79 -8 120 -33z m874 -1250 l0 -355 -180 0 -180 0 -2
-2812 -3 -2813 -23 -80 c-46 -162 -119 -282 -240 -397 -154 -145 -347 -221
-562 -221 -234 0 -436 87 -597 257 -122 128 -199 287 -222 459 -8 54 -11 945
-11 2843 l0 2764 -180 0 -180 0 0 355 0 355 1190 0 1190 0 0 -355z"/>
</g>
</svg>
