<svg width="583" height="1062" viewBox="0 0 583 1062" fill="none" xmlns="http://www.w3.org/2000/svg">
<path d="M556.545 252.169H550.715V92.4444C550.715 80.3044 548.324 68.2833 543.679 57.0675C539.033 45.8516 532.224 35.6606 523.64 27.0764C515.057 18.4921 504.866 11.6827 493.651 7.03694C482.436 2.39116 470.415 1.14888e-05 458.276 2.25707e-10H119.895C95.3781 -5.41384e-05 71.8657 9.73952 54.5299 27.0761C37.1941 44.4128 27.4549 67.9263 27.4548 92.444V968.706C27.4548 993.224 37.194 1016.74 54.5297 1034.07C71.8655 1051.41 95.3778 1061.15 119.894 1061.15H458.275C482.792 1061.15 506.304 1051.41 523.64 1034.07C540.976 1016.74 550.715 993.224 550.715 968.707V365.864H556.545L556.545 252.169Z" fill="#E6E6E6"/>
<path d="M531.04 93.0894V968.062C531.04 986.372 523.766 1003.93 510.819 1016.88C497.873 1029.83 480.313 1037.1 462.004 1037.1H121.999C103.69 1037.1 86.1306 1029.83 73.1839 1016.88C60.2372 1003.93 52.9637 986.372 52.9634 968.062V93.0894C52.9637 74.779 60.2373 57.2188 73.184 44.2714C86.1307 31.3241 103.69 24.0501 121.999 24.0498H163.246C161.219 29.0305 160.447 34.433 160.999 39.7821C161.55 45.1311 163.407 50.2628 166.406 54.7256C169.406 59.1885 173.456 62.8459 178.201 65.376C182.945 67.9061 188.239 69.2314 193.616 69.2354H387.471C392.848 69.2314 398.142 67.906 402.886 65.3759C407.631 62.8458 411.681 59.1884 414.681 54.7255C417.681 50.2627 419.538 45.131 420.089 39.782C420.64 34.433 419.868 29.0305 417.841 24.0498H462.004C480.313 24.0501 497.873 31.324 510.819 44.2714C523.766 57.2188 531.039 74.779 531.04 93.0894V93.0894Z" fill="white"/>
<path d="M198.11 263.968H145.896C141.594 263.963 137.47 262.252 134.428 259.21C131.386 256.168 129.675 252.043 129.67 247.741V195.525C129.675 191.222 131.386 187.098 134.428 184.056C137.47 181.014 141.594 179.302 145.896 179.298H198.11C202.412 179.302 206.536 181.014 209.578 184.056C212.62 187.098 214.332 191.222 214.336 195.525V247.741C214.332 252.043 212.62 256.168 209.578 259.21C206.536 262.252 202.412 263.963 198.11 263.968V263.968Z" fill="#6C63FF"/>
<path d="M318.108 263.968H265.894C261.592 263.963 257.468 262.252 254.426 259.21C251.384 256.168 249.673 252.043 249.668 247.741V195.525C249.673 191.222 251.384 187.098 254.426 184.056C257.468 181.014 261.592 179.302 265.894 179.298H318.108C322.41 179.302 326.535 181.014 329.577 184.056C332.619 187.098 334.33 191.222 334.335 195.525V247.741C334.33 252.043 332.619 256.168 329.577 259.21C326.535 262.252 322.41 263.963 318.108 263.968Z" fill="#6C63FF"/>
<path d="M438.107 263.968H385.893C381.591 263.963 377.466 262.252 374.424 259.21C371.383 256.168 369.671 252.043 369.667 247.741V195.525C369.671 191.222 371.383 187.098 374.424 184.056C377.466 181.014 381.591 179.302 385.893 179.298H438.107C442.409 179.302 446.533 181.014 449.575 184.056C452.617 187.098 454.328 191.222 454.333 195.525V247.741C454.328 252.043 452.617 256.168 449.575 259.21C446.533 262.252 442.409 263.963 438.107 263.968Z" fill="#E6E6E6"/>
<path d="M198.11 397.394H145.896C141.594 397.389 137.47 395.678 134.428 392.636C131.386 389.594 129.675 385.469 129.67 381.167V328.951C129.675 324.648 131.386 320.524 134.428 317.482C137.47 314.44 141.594 312.728 145.896 312.724H198.11C202.412 312.728 206.536 314.44 209.578 317.482C212.62 320.524 214.332 324.648 214.336 328.951V381.167C214.332 385.469 212.62 389.594 209.578 392.636C206.536 395.678 202.412 397.389 198.11 397.394V397.394Z" fill="#E6E6E6"/>
<path d="M318.108 397.394H265.894C261.592 397.389 257.468 395.678 254.426 392.636C251.384 389.594 249.673 385.469 249.668 381.167V328.951C249.673 324.648 251.384 320.524 254.426 317.482C257.468 314.44 261.592 312.728 265.894 312.724H318.108C322.41 312.728 326.535 314.44 329.577 317.482C332.619 320.524 334.33 324.648 334.335 328.951V381.167C334.33 385.469 332.619 389.594 329.577 392.636C326.535 395.678 322.41 397.389 318.108 397.394V397.394Z" fill="#E6E6E6"/>
<path d="M438.107 397.394H385.893C381.591 397.389 377.466 395.678 374.424 392.636C371.383 389.594 369.671 385.469 369.667 381.167V328.951C369.671 324.648 371.383 320.524 374.424 317.482C377.466 314.44 381.591 312.728 385.893 312.724H438.107C442.409 312.728 446.533 314.44 449.575 317.482C452.617 320.524 454.328 324.648 454.333 328.951V381.167C454.328 385.469 452.617 389.594 449.575 392.636C446.533 395.678 442.409 397.389 438.107 397.394Z" fill="#E6E6E6"/>
<path d="M198.11 530.795H145.896C141.594 530.79 137.47 529.079 134.428 526.037C131.386 522.994 129.675 518.87 129.67 514.568V462.351C129.675 458.049 131.386 453.924 134.428 450.882C137.47 447.84 141.594 446.129 145.896 446.124H198.11C202.412 446.129 206.536 447.84 209.578 450.882C212.62 453.924 214.332 458.049 214.336 462.351V514.568C214.332 518.87 212.62 522.994 209.578 526.037C206.536 529.079 202.412 530.79 198.11 530.795V530.795Z" fill="#E6E6E6"/>
<path d="M318.108 530.795H265.894C261.592 530.79 257.468 529.079 254.426 526.037C251.384 522.994 249.673 518.87 249.668 514.568V462.351C249.673 458.049 251.384 453.924 254.426 450.882C257.468 447.84 261.592 446.129 265.894 446.124H318.108C322.41 446.129 326.535 447.84 329.577 450.882C332.619 453.924 334.33 458.049 334.335 462.351V514.568C334.33 518.87 332.619 522.994 329.577 526.037C326.535 529.079 322.41 530.79 318.108 530.795V530.795Z" fill="#E6E6E6"/>
<path d="M438.107 530.795H385.893C381.591 530.79 377.466 529.079 374.424 526.037C371.383 522.994 369.671 518.87 369.667 514.568V462.351C369.671 458.049 371.383 453.924 374.424 450.882C377.466 447.84 381.591 446.129 385.893 446.124H438.107C442.409 446.129 446.533 447.84 449.575 450.882C452.617 453.924 454.328 458.049 454.333 462.351V514.568C454.328 518.87 452.617 522.994 449.575 526.037C446.533 529.079 442.409 530.79 438.107 530.795Z" fill="#E6E6E6"/>
<path d="M198.11 664.221H145.896C141.594 664.216 137.47 662.505 134.428 659.462C131.386 656.42 129.675 652.296 129.67 647.994V595.777C129.675 591.475 131.386 587.35 134.428 584.308C137.47 581.266 141.594 579.555 145.896 579.55H198.11C202.412 579.555 206.536 581.266 209.578 584.308C212.62 587.35 214.332 591.475 214.336 595.777V647.993C214.332 652.296 212.62 656.42 209.578 659.462C206.536 662.505 202.412 664.216 198.11 664.221V664.221Z" fill="#E6E6E6"/>
<path d="M318.108 664.221H265.894C261.592 664.216 257.468 662.505 254.426 659.462C251.384 656.42 249.673 652.296 249.668 647.994V595.777C249.673 591.475 251.384 587.35 254.426 584.308C257.468 581.266 261.592 579.555 265.894 579.55H318.108C322.41 579.555 326.535 581.266 329.577 584.308C332.619 587.35 334.33 591.475 334.335 595.777V647.993C334.33 652.296 332.619 656.42 329.577 659.462C326.535 662.505 322.41 664.216 318.108 664.221V664.221Z" fill="#E6E6E6"/>
<path d="M438.107 664.221H385.893C381.591 664.216 377.466 662.505 374.424 659.462C371.383 656.42 369.671 652.296 369.667 647.994V595.777C369.671 591.475 371.383 587.35 374.424 584.308C377.466 581.266 381.591 579.555 385.893 579.55H438.107C442.409 579.555 446.533 581.266 449.575 584.308C452.617 587.35 454.328 591.475 454.333 595.777V647.993C454.328 652.296 452.617 656.42 449.575 659.462C446.533 662.505 442.409 664.216 438.107 664.221V664.221Z" fill="#E6E6E6"/>
<path d="M351.692 648.748H299.479C294.983 648.742 290.673 646.954 287.495 643.775C284.316 640.597 282.528 636.287 282.523 631.791V579.575C282.528 575.079 284.316 570.769 287.495 567.591C290.674 564.412 294.983 562.624 299.479 562.619H351.692C356.187 562.624 360.497 564.412 363.676 567.591C366.854 570.769 368.642 575.079 368.648 579.575V631.791C368.643 636.287 366.855 640.597 363.676 643.775C360.497 646.954 356.188 648.742 351.692 648.748V648.748Z" fill="#6C63FF"/>
<path d="M104.642 783.496C106.615 782.514 108.35 781.111 109.722 779.386C111.095 777.661 112.073 775.656 112.587 773.512C113.101 771.368 113.139 769.138 112.698 766.978C112.257 764.818 111.347 762.781 110.034 761.011L121.309 650.765H96.9422L87.9815 758.414C85.1537 760.818 83.3058 764.176 82.788 767.851C82.2702 771.526 83.1184 775.264 85.172 778.355C87.2256 781.447 90.3418 783.678 93.9303 784.625C97.5187 785.573 101.33 785.171 104.642 783.496V783.496Z" fill="#FFB8B8"/>
<path d="M127.015 589.923C146.055 589.923 161.489 574.487 161.489 555.447C161.489 536.406 146.055 520.97 127.015 520.97C107.975 520.97 92.5405 536.406 92.5405 555.447C92.5405 574.487 107.975 589.923 127.015 589.923Z" fill="#FFB8B8"/>
<path d="M133.505 714.969C132.125 714.968 130.783 714.515 129.686 713.679C128.588 712.842 127.795 711.669 127.429 710.338C124.667 700.303 117.481 683.335 106.071 659.904C103.496 654.607 102.071 648.826 101.887 642.94C101.704 637.054 102.767 631.195 105.008 625.749C107.248 620.302 110.614 615.391 114.885 611.337C119.157 607.283 124.237 604.178 129.793 602.226V602.226C135.058 600.367 140.643 599.582 146.216 599.92C151.79 600.257 157.239 601.708 162.242 604.188C167.244 606.668 171.699 610.127 175.341 614.359C178.984 618.591 181.741 623.51 183.449 628.827C192.293 656.555 191.866 686.257 191.272 697.739C191.198 699.122 190.673 700.443 189.777 701.498C188.881 702.554 187.664 703.288 186.312 703.586L134.86 714.822C134.415 714.92 133.961 714.969 133.505 714.969V714.969Z" fill="#CCCCCC"/>
<path d="M183.33 1042.35L200.539 1042.35L208.725 975.972L183.327 975.973L183.33 1042.35Z" fill="#FFB8B8"/>
<path d="M233.726 1058.33L179.643 1058.33L179.642 1037.43L212.829 1037.43C215.573 1037.43 218.291 1037.97 220.826 1039.02C223.361 1040.07 225.665 1041.61 227.605 1043.55C229.545 1045.49 231.085 1047.8 232.135 1050.33C233.185 1052.87 233.726 1055.58 233.726 1058.33V1058.33Z" fill="#2F2E41"/>
<path d="M11.2588 1020.05L26.3388 1028.34L65.4918 974.117L43.2355 961.881L11.2588 1020.05Z" fill="#FFB8B8"/>
<path d="M47.7217 1058.33L0.329254 1032.27L10.396 1013.96L39.4778 1029.95C44.3341 1032.62 47.9309 1037.11 49.4769 1042.43C51.023 1047.75 50.3916 1053.47 47.7217 1058.33V1058.33V1058.33Z" fill="#2F2E41"/>
<path d="M182.526 1005.51C180.993 1005.51 179.512 1004.95 178.361 1003.93C177.21 1002.92 176.466 1001.52 176.269 1000L154.748 834.159C154.653 833.425 154.328 832.741 153.821 832.203C153.313 831.665 152.649 831.301 151.922 831.163C151.196 831.025 150.444 831.12 149.775 831.435C149.105 831.75 148.553 832.268 148.195 832.916L58.5059 995.647C57.7658 996.975 56.5736 997.994 55.1459 998.518C53.7182 999.042 52.1499 999.036 50.7261 998.502L31.1765 991.053C30.3902 990.754 29.6716 990.3 29.0631 989.719C28.4545 989.138 27.9682 988.441 27.6327 987.669C27.2972 986.897 27.1192 986.066 27.1093 985.225C27.0994 984.384 27.2577 983.549 27.575 982.769L89.705 830.136C89.8623 829.748 89.969 829.342 90.0223 828.927C98.4375 763.791 119.849 730.667 126.21 722.067C126.675 721.435 126.98 720.7 127.102 719.925C127.223 719.15 127.156 718.357 126.906 717.613L126.031 714.989C125.682 713.948 125.611 712.833 125.824 711.756C126.037 710.678 126.527 709.675 127.247 708.845C150.17 682.735 190.124 696.983 190.525 697.129L190.725 697.203L190.85 697.375C235.65 758.818 219.086 958.383 215.311 997.764C215.17 999.244 214.51 1000.63 213.448 1001.67C212.386 1002.71 210.991 1003.34 209.508 1003.45L183.017 1005.49C182.852 1005.5 182.689 1005.51 182.526 1005.51Z" fill="#2F2E41"/>
<path d="M261.038 595.494C260.866 596.252 260.754 597.021 260.702 597.796L200.407 632.583L185.751 624.145L170.127 644.6L194.621 662.059C196.599 663.469 198.982 664.199 201.411 664.14C203.841 664.081 206.185 663.235 208.093 661.73L270.268 612.677C273.074 613.716 276.13 613.876 279.029 613.135C281.928 612.395 284.533 610.789 286.497 608.532C288.461 606.275 289.692 603.474 290.025 600.5C290.359 597.527 289.779 594.522 288.363 591.886C286.947 589.25 284.762 587.108 282.099 585.744C279.436 584.38 276.421 583.859 273.454 584.251C270.488 584.643 267.711 585.928 265.493 587.937C263.276 589.945 261.722 592.581 261.038 595.494V595.494Z" fill="#FFB8B8"/>
<path d="M198.391 634.23L178.903 659.488C178.349 660.207 177.646 660.797 176.843 661.22C176.039 661.642 175.154 661.887 174.248 661.937C173.342 661.986 172.435 661.84 171.591 661.508C170.746 661.175 169.983 660.665 169.353 660.011L147.292 637.101C143.633 634.243 141.257 630.05 140.684 625.443C140.11 620.835 141.387 616.188 144.234 612.52C147.081 608.852 151.266 606.463 155.872 605.876C160.478 605.288 165.128 606.551 168.805 609.387L196.474 624.859C197.266 625.303 197.953 625.911 198.489 626.644C199.025 627.377 199.396 628.217 199.578 629.106C199.76 629.995 199.748 630.913 199.543 631.797C199.338 632.682 198.945 633.512 198.391 634.23V634.23Z" fill="#CCCCCC"/>
<path d="M122.86 678.113L91.4668 672.444C90.5736 672.283 89.7257 671.931 88.9807 671.412C88.2358 670.893 87.6113 670.22 87.1499 669.439C86.6885 668.657 86.401 667.785 86.3069 666.882C86.2129 665.979 86.3145 665.067 86.6049 664.207L96.782 634.073C97.6331 629.508 100.26 625.466 104.086 622.834C107.913 620.203 112.626 619.196 117.194 620.034C121.762 620.873 125.81 623.489 128.452 627.308C131.094 631.128 132.114 635.839 131.288 640.409L130.295 672.096C130.267 673.004 130.043 673.894 129.639 674.707C129.235 675.52 128.661 676.236 127.955 676.807C127.25 677.378 126.429 677.79 125.55 678.016C124.671 678.241 123.753 678.274 122.86 678.113H122.86Z" fill="#CCCCCC"/>
<path d="M132.472 547.517C141.332 553.581 152.967 559.815 162.016 553.357C164.847 551.201 166.904 548.186 167.878 544.764C168.852 541.342 168.692 537.696 167.421 534.372C163.088 521.98 151.182 516.524 139.797 512.342C124.997 506.905 108.881 502.58 93.6024 506.474C78.3235 510.367 64.8203 525.161 67.5785 540.686C69.7965 553.171 81.5726 563.559 79.9008 576.128C78.2183 588.779 63.9925 595.437 51.4333 597.698C38.8741 599.959 24.8201 600.686 15.7944 609.707C4.28033 621.216 7.15561 641.786 17.9898 653.937C28.8241 666.088 45.1735 671.596 61.0161 675.34C82.0066 680.301 104.709 682.908 124.645 674.675C144.581 666.442 160.094 644.279 154.319 623.497C151.88 614.718 146.134 607.299 140.58 600.077C135.026 592.854 129.403 585.301 127.284 576.44C125.519 569.056 126.826 560.482 131.722 554.943C132.613 553.973 133.174 552.746 133.323 551.438C133.473 550.13 133.205 548.808 132.557 547.663L132.472 547.517Z" fill="#2F2E41"/>
<path d="M482.997 1044.65H465.122L456.619 975.697H483L482.997 1044.65Z" fill="#FFB8B8"/>
<path d="M452.355 1039.54H486.828V1061.24H430.65C430.65 1058.39 431.211 1055.57 432.302 1052.94C433.393 1050.3 434.992 1047.91 437.007 1045.9C439.023 1043.88 441.415 1042.28 444.049 1041.19C446.682 1040.1 449.505 1039.54 452.355 1039.54Z" fill="#2F2E41"/>
<path d="M550.065 1044.65H532.19L523.687 975.697H550.068L550.065 1044.65Z" fill="#FFB8B8"/>
<path d="M519.423 1039.54H553.895V1061.24H497.718C497.718 1058.39 498.279 1055.57 499.37 1052.94C500.461 1050.3 502.06 1047.91 504.075 1045.9C506.091 1043.88 508.483 1042.28 511.117 1041.19C513.75 1040.1 516.572 1039.54 519.423 1039.54V1039.54Z" fill="#2F2E41"/>
<path d="M547.882 839.294C545.956 838.056 544.325 836.41 543.105 834.472C541.884 832.535 541.102 830.354 540.816 828.082C540.529 825.81 540.744 823.503 541.445 821.323C542.147 819.143 543.318 817.143 544.875 815.465L533.105 648.432L567.008 651.72L567.939 815.296C570.585 818.1 572.111 821.777 572.227 825.63C572.343 829.484 571.042 833.246 568.569 836.205C566.097 839.163 562.626 841.111 558.813 841.681C555 842.25 551.111 841.401 547.882 839.294H547.882Z" fill="#FFB8B8"/>
<path d="M482.153 1009.91L462.476 1008.97C460.799 1008.89 459.217 1008.17 458.055 1006.96C456.893 1005.75 456.238 1004.14 456.227 1002.47L454.853 803.357C454.847 802.412 455.045 801.476 455.433 800.615C455.822 799.753 456.392 798.985 457.104 798.364C457.817 797.743 458.655 797.284 459.561 797.017C460.468 796.749 461.422 796.681 462.357 796.817L541.079 808.245C542.635 808.463 544.06 809.235 545.092 810.418C546.124 811.602 546.694 813.119 546.698 814.69L556.823 999.185C556.829 1000.05 556.664 1000.91 556.337 1001.71C556.011 1002.51 555.528 1003.24 554.919 1003.86C554.309 1004.47 553.583 1004.96 552.784 1005.29C551.985 1005.62 551.128 1005.8 550.262 1005.8H529.048C527.483 1005.8 525.967 1005.25 524.778 1004.23C523.588 1003.21 522.803 1001.8 522.566 1000.25L509.478 917.046C509.287 915.829 508.661 914.722 507.718 913.929C506.774 913.137 505.575 912.713 504.343 912.736C503.111 912.759 501.928 913.227 501.014 914.053C500.1 914.88 499.516 916.009 499.37 917.233L488.98 1004.14C488.784 1005.73 488.014 1007.2 486.815 1008.26C485.615 1009.32 484.068 1009.91 482.464 1009.92C482.361 1009.92 482.257 1009.92 482.153 1009.91Z" fill="#2F2E41"/>
<path d="M496.005 814.698C478.656 805.058 465.1 802.525 458.564 801.873C457.696 801.789 456.853 801.53 456.088 801.111C455.323 800.691 454.651 800.121 454.112 799.434C453.562 798.742 453.158 797.946 452.925 797.094C452.691 796.241 452.634 795.35 452.755 794.475L471.618 654.426C472.704 646.233 475.868 638.454 480.81 631.829C485.751 625.204 492.306 619.954 499.849 616.579C507.152 613.222 515.191 611.789 523.204 612.417C531.216 613.045 538.934 615.713 545.624 620.167C546.27 620.597 546.905 621.036 547.527 621.484C555.231 627.129 561.092 634.929 564.37 643.9C567.649 652.871 568.199 662.611 565.951 671.894C554.384 719.216 550.41 796.796 549.731 811.867C549.678 813.152 549.245 814.392 548.488 815.431C547.731 816.471 546.683 817.262 545.477 817.707C538.36 820.293 530.85 821.631 523.278 821.66C513.74 821.717 504.348 819.32 496.005 814.698V814.698Z" fill="#6C63FF"/>
<path d="M540.78 704.557C539.986 703.986 539.331 703.244 538.862 702.386C538.393 701.528 538.122 700.576 538.07 699.599L535.586 654.58C535.34 650.119 536.754 645.726 539.556 642.247C542.357 638.767 546.347 636.448 550.757 635.737C555.167 635.026 559.684 635.972 563.437 638.395C567.191 640.817 569.914 644.542 571.083 648.854L581.995 689.104C582.449 690.783 582.217 692.574 581.352 694.083C580.487 695.592 579.058 696.696 577.38 697.153L546.338 705.57C545.395 705.828 544.406 705.871 543.444 705.695C542.482 705.52 541.572 705.131 540.78 704.557Z" fill="#6C63FF"/>
<path d="M511.783 597.563C531.561 597.563 547.593 581.529 547.593 561.751C547.593 541.973 531.561 525.94 511.783 525.94C492.006 525.94 475.974 541.973 475.974 561.751C475.974 581.529 492.006 597.563 511.783 597.563Z" fill="#FFB8B8"/>
<path d="M382.016 632.11C382.195 632.897 382.312 633.696 382.365 634.501L444.997 670.635L460.221 661.871L476.45 683.118L443.882 706.331L372.429 649.959C369.515 651.037 366.341 651.203 363.33 650.433C360.32 649.664 357.615 647.997 355.575 645.652C353.535 643.308 352.257 640.399 351.911 637.31C351.565 634.222 352.167 631.102 353.637 628.364C355.108 625.627 357.377 623.402 360.143 621.985C362.908 620.568 366.04 620.027 369.121 620.434C372.201 620.841 375.085 622.176 377.389 624.261C379.692 626.347 381.306 629.084 382.016 632.11V632.11Z" fill="#FFB8B8"/>
<path d="M447.234 667.562C447.13 666.59 447.245 665.607 447.571 664.685C447.898 663.763 448.427 662.926 449.12 662.236L480.996 630.35C484.155 627.191 488.371 625.313 492.831 625.079C497.292 624.845 501.681 626.27 505.153 629.081C508.625 631.891 510.933 635.888 511.633 640.3C512.333 644.712 511.375 649.226 508.943 652.974L486.242 687.956C485.294 689.414 483.806 690.436 482.104 690.798C480.403 691.161 478.627 690.833 477.167 689.888L450.188 672.379C449.367 671.848 448.675 671.14 448.164 670.306C447.653 669.473 447.335 668.535 447.234 667.562Z" fill="#6C63FF"/>
<path d="M537.124 590.084C530.444 597.2 518.037 593.38 517.167 583.658C517.098 582.903 517.103 582.143 517.181 581.389C517.631 577.083 520.119 573.173 519.523 568.626C519.388 567.494 518.966 566.416 518.298 565.493C512.974 558.364 500.478 568.681 495.454 562.228C492.373 558.271 495.994 552.04 493.63 547.617C490.51 541.78 481.268 544.659 475.473 541.463C469.024 537.906 469.41 528.011 473.655 521.993C478.831 514.654 487.908 510.738 496.871 510.173C505.834 509.609 514.736 512.032 523.104 515.293C532.611 518.999 542.04 524.12 547.89 532.48C555.006 542.648 555.69 556.317 552.132 568.206C549.967 575.438 542.579 584.272 537.124 590.084Z" fill="#2F2E41"/>
</svg>
