<svg width="389" height="357" viewBox="0 0 389 357" fill="none" xmlns="http://www.w3.org/2000/svg">
<path d="M381.658 355.546L365.949 308.141C365.949 308.141 383.228 325.419 383.228 339.597L380.127 306.812C380.127 306.812 388.987 318.774 388.101 336.938C387.215 355.103 381.658 355.546 381.658 355.546Z" fill="#E6E6E6"/>
<path d="M44.3183 312.381L28.9873 266.116C28.9873 266.116 45.8504 282.979 45.8504 296.815L42.8237 264.819C42.8237 264.819 51.4715 276.493 50.6067 294.221C49.7419 311.949 44.3183 312.381 44.3183 312.381Z" fill="#E6E6E6"/>
<path d="M283.606 333.731C283.633 364.165 223.27 354.804 149.372 354.867C75.4742 354.931 16.0246 364.396 15.9983 333.962C15.972 303.528 76.3125 296.856 150.21 296.792C224.108 296.729 283.58 303.296 283.606 333.731Z" fill="#E6E6E6"/>
<path d="M231.816 292.629H222.155L217.557 255.365H231.816V292.629Z" fill="#A0616A"/>
<path d="M214.181 289.869H233.887V301.601H203.523V300.527C203.523 297.701 204.646 294.99 206.645 292.991C208.644 290.992 211.355 289.869 214.181 289.869Z" fill="#2F2E41"/>
<path d="M302.829 347.629H293.168L288.57 310.365H302.829V347.629Z" fill="#A0616A"/>
<path d="M285.194 344.869H304.899V356.601H274.536V355.527C274.536 352.701 275.659 349.99 277.657 347.991C279.656 345.992 282.367 344.869 285.194 344.869Z" fill="#2F2E41"/>
<path d="M347.392 236.924C348.06 236.114 348.542 235.167 348.805 234.151C349.067 233.134 349.104 232.072 348.912 231.04C348.719 230.008 348.303 229.03 347.692 228.176C347.081 227.322 346.291 226.613 345.376 226.097L322.937 134.691L308.59 140.864L335.279 229.246C334.515 230.84 334.363 232.659 334.851 234.358C335.338 236.057 336.432 237.519 337.925 238.465C339.418 239.412 341.207 239.777 342.952 239.493C344.696 239.209 346.276 238.295 347.392 236.924Z" fill="#A0616A"/>
<path d="M329.891 52.1899C329.091 51.3527 328.116 50.7013 327.036 50.2816C325.957 49.8619 324.798 49.684 323.642 49.7605C322.486 49.837 321.361 50.166 320.346 50.7243C319.331 51.2827 318.451 52.0568 317.767 52.9922L283.037 56.9794L288.32 70.3753L319.905 64.464C321.553 65.5081 323.526 65.9115 325.451 65.598C327.376 65.2844 329.119 64.2756 330.35 62.7626C331.581 61.2497 332.214 59.3377 332.13 57.3891C332.045 55.4405 331.249 53.5906 329.891 52.1899Z" fill="#A0616A"/>
<path d="M272.658 227.445L287.813 341.186L306.676 337.303C306.676 337.303 303.902 254.467 313.333 244.481C322.764 234.495 301.202 217.001 301.202 217.001L272.658 227.445Z" fill="#2F2E41"/>
<path d="M278.924 196.115L271.962 206.558C271.962 206.558 218.354 184.28 218.354 219.786C218.354 255.292 215.287 279.388 214.177 281.052C213.068 282.717 227.014 287.035 233.671 285.926C233.671 285.926 241.884 228.685 241.329 225.356C241.329 225.356 293.916 251.139 303.902 248.92C313.888 246.7 316.247 238.845 317.911 234.407C319.576 229.968 317.215 194.723 317.215 194.723L283.93 184.565L278.924 196.115Z" fill="#2F2E41"/>
<path d="M279.863 133.415L277.879 131.034C277.879 131.034 255.654 81.0269 264.385 67.533C273.116 54.0391 311.217 52.0546 312.408 52.8484C313.598 53.6422 309.564 63.9478 312.342 68.7104C312.342 68.7104 282.827 75.1094 280.843 75.9031C278.858 76.6969 296.135 106.03 296.135 106.03L294.151 123.89L279.863 133.415Z" fill="#CCCCCC"/>
<path d="M318.758 108.809C318.758 108.809 298.12 111.19 297.326 111.19C296.532 111.19 296.135 106.03 296.135 106.03L277.879 131.034C277.879 131.034 268.885 203.572 271.266 202.381C273.647 201.191 317.567 208.029 317.964 204.854C318.361 201.679 317.567 185.803 318.758 185.01C319.948 184.216 339.395 135.003 339.395 135.003C339.395 135.003 337.411 124.684 330.664 121.112C323.917 117.54 318.758 108.809 318.758 108.809Z" fill="#CCCCCC"/>
<path d="M333.045 128.256L339.395 135.003C339.395 135.003 348.83 212.532 343.671 214.913C338.511 217.294 328.354 217.002 328.354 217.002L318.361 180.247L333.045 128.256Z" fill="#CCCCCC"/>
<path d="M298.926 103.899C309.015 103.899 317.193 95.7202 317.193 85.6313C317.193 75.5424 309.015 67.3638 298.926 67.3638C288.837 67.3638 280.658 75.5424 280.658 85.6313C280.658 95.7202 288.837 103.899 298.926 103.899Z" fill="#A0616A"/>
<path d="M294.639 88.4817C294.393 84.6912 289.611 84.5613 285.812 84.5255C282.014 84.4896 277.473 84.6252 275.324 81.4932C273.903 79.4234 274.175 76.5499 275.348 74.3308C276.521 72.1117 278.452 70.4049 280.35 68.763C285.253 64.5239 290.305 60.3185 296.19 57.6052C302.076 54.8919 308.973 53.7956 315.077 55.9737C322.575 58.6492 332.711 72.4221 333.587 80.335C334.462 88.248 331.299 96.3146 325.969 102.228C320.638 108.141 308.437 105.755 300.759 107.859C305.427 101.252 302.35 89.2473 294.872 86.1621L294.639 88.4817Z" fill="#2F2E41"/>
<path d="M131.832 324.774C156.051 324.774 175.685 305.141 175.685 280.921C175.685 256.701 156.051 237.068 131.832 237.068C107.612 237.068 87.9783 256.701 87.9783 280.921C87.9783 305.141 107.612 324.774 131.832 324.774Z" fill="#6C63FF"/>
<path d="M102.545 233.952C96.4677 233.952 90.5202 232.191 85.4226 228.881C80.3251 225.571 76.2961 220.855 73.8234 215.303L4.23646 58.5934C1.93137 53.4024 0.712246 47.7948 0.654043 42.1154C0.595839 36.4359 1.69978 30.8044 3.89801 25.5673C6.09624 20.3301 9.34232 15.5978 13.4367 11.6613C17.5311 7.72485 22.3873 4.66729 27.7068 2.67661C33.0263 0.685929 38.6968 -0.195817 44.3696 0.0855779C50.0424 0.366973 55.5978 1.80556 60.6942 4.31291C65.7906 6.82027 70.3203 10.3434 74.0051 14.6658C77.6898 18.9882 80.4516 24.0185 82.1207 29.4475L132.51 193.342C133.953 198.033 134.275 202.997 133.451 207.836C132.627 212.674 130.68 217.252 127.766 221.201C124.852 225.15 121.052 228.361 116.672 230.576C112.292 232.79 107.454 233.946 102.546 233.952H102.545Z" fill="#6C63FF"/>
</svg>
