<svg width="463" height="363" viewBox="0 0 463 363" fill="none" xmlns="http://www.w3.org/2000/svg">
<path opacity="0.1" d="M234.025 313.386C360.257 313.386 462.587 305.435 462.587 295.628C462.587 285.821 360.257 277.87 234.025 277.87C107.794 277.87 5.46387 285.821 5.46387 295.628C5.46387 305.435 107.794 313.386 234.025 313.386Z" fill="#6C63FF"/>
<path opacity="0.1" d="M46.7233 42.4837C43.6865 41.9087 40.5474 42.2496 37.7045 43.463C35.9985 44.2198 34.1523 44.6085 32.2861 44.6038C30.4199 44.5992 28.5757 44.2013 26.8734 43.4361C24.8591 42.5524 22.677 42.1174 20.4781 42.1611C18.2792 42.2047 16.1161 42.7261 14.1385 43.689C13.0074 44.2852 11.7491 44.5991 10.4707 44.6038C5.30792 44.6038 1.01096 39.4003 0.118225 32.5339C1.14988 31.7818 2.02644 30.8371 2.69963 29.7519C5.7274 24.8712 10.4169 21.734 15.6819 21.734C20.9469 21.734 25.5773 24.8335 28.5889 29.6604C29.4941 31.1234 30.7623 32.3269 32.2702 33.1539C33.778 33.9809 35.4742 34.4032 37.1936 34.3797H37.3281C41.4045 34.3743 44.9647 37.6729 46.7233 42.4837Z" fill="#6C63FF"/>
<path opacity="0.1" d="M62.4268 20.9322L54.0803 26.2273L59.1463 17.0094C57.7105 15.8627 55.9334 15.2283 54.0964 15.2067H53.962C53.3821 15.2152 52.8025 15.172 52.2303 15.0776L49.4123 16.9018L50.6277 14.6955C48.6222 13.9943 46.8902 12.6757 45.68 10.9287L40.614 14.1574L43.8031 8.29195C40.8399 4.73502 36.8494 2.55566 32.461 2.55566C27.1961 2.55566 22.5065 5.68748 19.4787 10.5682C18.582 12.0327 17.3131 13.2332 15.8015 14.0471C14.2899 14.861 12.5897 15.2593 10.8741 15.2013H10.589C4.77551 15.2013 0.0644531 21.7932 0.0644531 29.9295C0.0644531 38.0658 4.77551 44.6576 10.589 44.6576C11.8683 44.6542 13.1273 44.3384 14.2568 43.7375C16.2348 42.7754 18.3981 42.2549 20.597 42.2122C22.7959 42.1695 24.9779 42.6054 26.9917 43.4899C28.694 44.2551 30.5382 44.653 32.4044 44.6576C34.2706 44.6623 36.1168 44.2736 37.8228 43.5168C39.8218 42.6487 41.9841 42.221 44.1629 42.2628C46.3416 42.3046 48.4859 42.8148 50.4502 43.759C51.569 44.3449 52.8122 44.6531 54.0749 44.6576C59.8884 44.6576 64.5995 38.0604 64.5995 29.9295C64.64 26.7956 63.8929 23.7018 62.4268 20.9322Z" fill="#6C63FF"/>
<path opacity="0.1" d="M313.081 358.049C347.238 358.049 374.927 353.231 374.927 347.287C374.927 341.343 347.238 336.525 313.081 336.525C278.924 336.525 251.235 341.343 251.235 347.287C251.235 353.231 278.924 358.049 313.081 358.049Z" fill="#6C63FF"/>
<path d="M280.711 296.166L184.882 294.934L185.167 292.475L189.798 251.906H273.957L280.147 292.475L280.62 295.553L280.711 296.166Z" fill="#D0D2D5"/>
<path opacity="0.1" d="M280.62 295.553H232.799L184.882 294.934L185.167 292.475H280.147L280.62 295.553Z" fill="black"/>
<path d="M296.071 293.094H168.91V296.166H296.071V293.094Z" fill="#D0D2D5"/>
<path d="M417.391 8.24886C417.398 6.12852 416.564 4.09203 415.072 2.58668C413.579 1.08132 411.551 0.230184 409.432 0.220215H54.3169C53.2667 0.22515 52.2278 0.437014 51.2594 0.843705C50.2911 1.2504 49.4123 1.84395 48.6732 2.59048C47.9341 3.33701 47.3492 4.22189 46.9519 5.19461C46.5546 6.16732 46.3526 7.20882 46.3576 8.25963V223.639H417.391V8.24886Z" fill="#3F3D56"/>
<path d="M46.3576 221.487V246.714C46.3576 248.826 47.1962 250.852 48.6888 252.345C50.1815 253.839 52.206 254.678 54.3169 254.678H409.432C411.543 254.678 413.567 253.839 415.06 252.345C416.553 250.852 417.391 248.826 417.391 246.714V221.487H46.3576Z" fill="#D0D2D5"/>
<path d="M403.876 13.7268H61.7169V207.345H403.876V13.7268Z" fill="white"/>
<path d="M233.719 245.105C234.975 245.106 236.216 244.822 237.346 244.272C238.476 243.723 239.467 242.924 240.242 241.935C240.478 241.634 240.694 241.318 240.888 240.988L236.333 240.219L241.253 240.251C241.725 239.224 241.982 238.112 242.009 236.982C242.036 235.852 241.832 234.729 241.409 233.681L234.811 237.103L240.899 232.626C240.327 231.643 239.559 230.787 238.643 230.113C237.727 229.44 236.682 228.961 235.574 228.708C234.465 228.456 233.317 228.433 232.199 228.644C231.082 228.854 230.02 229.291 229.078 229.929C228.137 230.568 227.337 231.393 226.728 232.353C226.119 233.314 225.714 234.39 225.538 235.514C225.362 236.637 225.419 237.786 225.705 238.887C225.991 239.988 226.5 241.018 227.201 241.914C227.974 242.906 228.963 243.709 230.092 244.262C231.221 244.814 232.462 245.103 233.719 245.105Z" fill="#6C63FF"/>
<path opacity="0.1" d="M242.012 254.672L280.243 293.094L274.376 254.672H242.012Z" fill="black"/>
<path opacity="0.1" d="M403.979 13.7484H61.4481V25.0595H403.979V13.7484Z" fill="#444053"/>
<path opacity="0.3" d="M283.266 15.7179H180.687C180.515 15.7179 180.375 15.8576 180.375 16.03V22.2883C180.375 22.4606 180.515 22.6004 180.687 22.6004H283.266C283.438 22.6004 283.578 22.4606 283.578 22.2883V16.03C283.578 15.8576 283.438 15.7179 283.266 15.7179Z" fill="#6C63FF"/>
<path d="M280.512 19.8721H280.259L280.168 19.7914C280.481 19.4151 280.652 18.941 280.652 18.4515C280.649 18.0497 280.527 17.6578 280.301 17.3253C280.076 16.9928 279.757 16.7346 279.385 16.5833C279.013 16.432 278.604 16.3943 278.211 16.4751C277.817 16.5558 277.457 16.7513 277.174 17.037C276.892 17.3226 276.7 17.6856 276.624 18.08C276.547 18.4745 276.589 18.8828 276.744 19.2535C276.899 19.6241 277.161 19.9405 277.495 20.1626C277.83 20.3848 278.223 20.5028 278.625 20.5017C279.114 20.5 279.588 20.3267 279.964 20.012L280.055 20.0928V20.3457L281.631 21.9223L282.099 21.4488L280.512 19.8721ZM278.625 19.8721C278.344 19.8732 278.069 19.7908 277.834 19.6353C277.6 19.4799 277.417 19.2584 277.309 18.9989C277.201 18.7394 277.172 18.4536 277.226 18.1777C277.28 17.9018 277.415 17.6481 277.613 17.4489C277.812 17.2497 278.065 17.1139 278.34 17.0586C278.616 17.0033 278.902 17.0312 279.161 17.1385C279.421 17.2459 279.643 17.428 279.799 17.6617C279.956 17.8954 280.039 18.1703 280.039 18.4515C280.04 18.638 280.005 18.823 279.934 18.9956C279.864 19.1682 279.76 19.3252 279.628 19.4573C279.497 19.5894 279.34 19.6941 279.168 19.7654C278.996 19.8366 278.811 19.8729 278.625 19.8721Z" fill="#3F3D56"/>
<path opacity="0.8" d="M67.6057 21.4757C68.7492 21.4757 69.6762 20.5482 69.6762 19.404C69.6762 18.2598 68.7492 17.3323 67.6057 17.3323C66.4622 17.3323 65.5352 18.2598 65.5352 19.404C65.5352 20.5482 66.4622 21.4757 67.6057 21.4757Z" fill="#FA5959"/>
<path opacity="0.8" d="M73.301 21.4757C74.4445 21.4757 75.3715 20.5482 75.3715 19.404C75.3715 18.2598 74.4445 17.3323 73.301 17.3323C72.1575 17.3323 71.2305 18.2598 71.2305 19.404C71.2305 20.5482 72.1575 21.4757 73.301 21.4757Z" fill="#FED253"/>
<path opacity="0.8" d="M79.0015 21.4757C80.145 21.4757 81.072 20.5482 81.072 19.404C81.072 18.2598 80.145 17.3323 79.0015 17.3323C77.858 17.3323 76.931 18.2598 76.931 19.404C76.931 20.5482 77.858 21.4757 79.0015 21.4757Z" fill="#8CCF4D"/>
<path d="M250.923 96.8061C246.228 90.564 239.425 86.625 231.853 86.625C224.281 86.625 217.478 90.564 212.783 96.8061C213.821 99.3535 215.356 101.668 217.3 103.613C219.702 106.016 222.661 107.786 225.912 108.767C229.164 109.747 232.608 109.908 235.936 109.234C239.265 108.56 242.375 107.073 244.99 104.904C247.605 102.736 249.643 99.9538 250.923 96.8061Z" fill="#6C63FF"/>
<path d="M209.357 99.9218C209.652 100.136 209.969 100.316 210.303 100.46C213.907 107.751 221.371 113.332 229.938 113.8V148.373C223.458 147.986 218.268 144.72 213.907 139.624C213.53 139.909 213.251 140.167 212.992 140.409C212.63 140.752 212.377 141.195 212.265 141.681C212.153 142.167 212.188 142.676 212.363 143.143C212.6 143.786 212.661 144.481 212.541 145.155C212.421 145.83 212.124 146.461 211.68 146.983C211.236 147.504 210.661 147.899 210.014 148.125C209.368 148.351 208.673 148.401 208.001 148.27C207.328 148.139 206.703 147.831 206.189 147.378C205.675 146.926 205.29 146.344 205.074 145.694C204.859 145.043 204.82 144.347 204.962 143.676C205.104 143.006 205.422 142.385 205.883 141.878C206.021 141.726 206.172 141.586 206.335 141.459C206.428 141.373 206.531 141.299 206.641 141.238C207.233 139.096 208.636 137.165 210.917 135.394C208.35 131.006 206.78 126.106 206.318 121.043C205.986 121.046 205.654 121.067 205.324 121.107C204.875 121.168 204.452 121.35 204.1 121.635C203.748 121.919 203.481 122.295 203.328 122.722C203.08 123.383 202.656 123.963 202.101 124.4C201.547 124.837 200.884 125.113 200.183 125.2C199.483 125.287 198.772 125.18 198.128 124.891C197.484 124.603 196.932 124.143 196.53 123.563C196.128 122.982 195.893 122.303 195.849 121.598C195.806 120.893 195.956 120.19 196.284 119.565C196.611 118.939 197.104 118.415 197.707 118.05C198.311 117.684 199.003 117.491 199.709 117.491C199.865 117.494 200.022 117.505 200.177 117.523C200.755 117.108 201.396 116.788 202.075 116.576C203.403 116.161 204.783 115.938 206.173 115.914C206.31 112.325 206.988 108.776 208.185 105.389C207.316 104.895 206.496 104.318 205.738 103.667C204.998 103.006 204.392 102.21 203.952 101.321C203.719 100.872 203.363 100.498 202.925 100.245C202.588 100.042 202.28 99.7938 202.011 99.5074C201.533 98.9917 201.204 98.3552 201.061 97.6665C200.918 96.9779 200.966 96.2632 201.199 95.5995C201.432 94.9359 201.841 94.3485 202.383 93.9007C202.925 93.4528 203.579 93.1615 204.275 93.0582C204.97 92.955 205.68 93.0436 206.329 93.3145C206.978 93.5854 207.54 94.0284 207.956 94.5957C208.372 95.163 208.625 95.8331 208.688 96.5336C208.751 97.2342 208.621 97.9386 208.314 98.5711C208.555 99.0947 208.911 99.5566 209.357 99.9218Z" fill="#6C63FF"/>
<path d="M348.236 341.013C347.924 340.517 347.529 340.078 347.069 339.716C344.719 337.493 343.628 334.232 343.047 331.036C342.466 327.84 342.299 324.579 341.369 321.452C340.863 319.849 340.23 318.289 339.476 316.787C338.938 315.635 338.26 313.381 337.276 312.573C337.083 312.406 336.849 312.293 336.599 312.245C336.134 311.256 335.471 310.374 334.652 309.651C333.114 308.258 331.237 307.149 330.21 305.347C329.927 304.721 329.579 304.128 329.172 303.576C328.478 302.812 327.381 302.5 326.741 301.693C325.907 300.649 326.096 299.153 326.203 297.824C326.311 296.495 326.203 294.902 325.052 294.202C324.364 293.777 323.476 293.82 322.761 293.443C321.686 292.905 321.261 291.549 321.282 290.339C321.304 289.128 321.68 287.949 321.777 286.739C322.078 282.886 319.54 279.054 320.519 275.32C320.89 273.905 321.739 272.678 322.369 271.359C322.588 270.921 322.768 270.463 322.906 269.992C324.584 270.658 326.348 271.084 328.144 271.257C325.181 264.606 325.934 256.879 324.552 249.732L324.73 249.49C326.125 247.648 326.918 245.419 326.999 243.108C326.999 240.45 325.757 237.964 325.197 235.359C324.719 233.148 324.74 230.834 324.122 228.66C323.693 227.309 323.123 226.007 322.422 224.775C321.752 223.53 321.047 222.305 320.309 221.099C319.62 218.818 318.93 216.536 318.238 214.255C317.27 211.053 316.275 207.797 314.393 205.031C313.705 204.02 313.495 201.964 312.436 201.351C311.575 200.905 310.599 200.734 309.639 200.861C308.144 200.022 306.832 198.811 306.644 197.153C306.625 196.791 306.661 196.428 306.751 196.077H306.934C309.3 195.862 310.5 193.774 311.731 191.945C313.721 188.985 312.963 184.981 311.731 181.613C311.426 180.55 310.873 179.574 310.118 178.766C308.391 177.152 305.659 177.507 303.433 176.727C302.685 176.468 301.986 176.076 301.223 175.893C299.744 175.548 298.195 176.033 296.84 176.716C295.484 177.399 294.221 178.282 292.801 178.82C291.381 179.358 289.628 179.783 289.278 181.241C289.18 181.733 289.221 182.241 289.397 182.711C289.723 183.646 290.298 184.476 291.058 185.11C290.454 186.358 290.127 187.721 290.1 189.107C290.073 190.493 290.347 191.868 290.903 193.138C291.458 194.407 292.283 195.541 293.319 196.461C294.355 197.381 295.578 198.065 296.904 198.466C297.313 199.123 297.695 199.79 298.044 200.474C298.668 201.679 299.195 203.1 298.98 204.391C298.591 204.805 298.232 205.245 297.904 205.709C296.361 207.862 295.484 210.386 294.678 212.904C293.594 216.12 292.726 219.404 292.08 222.735C290.768 225.528 289.165 228.197 288.213 231.13C286.509 231.132 284.812 230.904 283.169 230.452L278.63 229.424C277.049 229.064 275.403 228.676 274.166 227.632C273.51 227.094 272.999 226.378 272.332 225.846C271.666 225.313 270.326 224.689 269.595 225.13C269.461 225.211 269.337 225.307 269.224 225.415C268.557 224.064 267.923 222.725 267.148 221.417C266.035 219.587 264.379 217.914 262.281 217.564C261 217.358 259.688 217.663 258.63 218.414C257.403 219.286 256.634 221.105 257.554 222.332C257.784 222.605 258.034 222.86 258.301 223.096C258.924 223.814 259.48 224.586 259.963 225.404C261.697 227.839 264.29 229.524 267.218 230.118L267.03 230.656C266.648 231.776 265.836 233.126 266.04 234.289L286.229 241.203C287.524 241.729 288.899 242.033 290.295 242.102C290.839 242.098 291.381 242.025 291.908 241.887V242.92V242.963C291.962 250.061 290.833 257.11 290.623 264.202C290.585 265.499 290.623 266.893 291.44 267.905C292.354 269.013 293.979 269.234 295.393 268.981C295.734 268.923 296.067 268.848 296.393 268.755C296.872 270.54 297.217 272.359 297.426 274.195L298.76 283.806C298.931 284.79 299.001 285.789 298.969 286.787C298.813 289.042 297.625 291.06 296.764 293.142C295.904 295.225 295.393 297.716 296.522 299.664C296.877 300.267 297.367 300.778 297.684 301.402C298.087 302.369 298.271 303.413 298.222 304.459C298.304 307.357 298.383 310.259 298.458 313.165C298.224 313.127 297.983 313.175 297.781 313.3C296.662 314.172 296.786 318.32 296.705 319.607C296.619 321.759 296.705 323.954 296.587 326.128C296.447 329.058 295.976 331.963 295.183 334.787C294.989 335.705 294.566 336.558 293.952 337.267C293.323 337.815 292.572 338.204 291.763 338.403C289.083 339.242 286.282 339.624 283.475 339.533C282.341 339.495 281.158 339.388 280.104 339.818C279.049 340.249 278.2 341.432 278.582 342.509C278.91 343.413 279.905 343.843 280.803 344.182C282.854 344.905 284.835 345.817 286.718 346.905C287.443 347.399 288.208 347.833 289.004 348.202C289.767 348.476 290.556 348.671 291.36 348.783L300.895 350.43C302.847 350.763 305.197 350.968 306.439 349.353C307.111 348.482 307.208 347.298 307.176 346.189C307.122 344.037 306.692 341.847 306.972 339.694C307.184 338.422 307.519 337.173 307.972 335.965C308.922 333.142 309.876 330.32 310.833 327.501C311.79 324.67 312.758 321.813 313.129 318.842C313.264 317.766 313.253 316.539 312.43 315.867C312.222 315.696 311.98 315.571 311.72 315.501C311.688 312.907 311.349 310.308 311.494 307.714C311.532 307.068 311.597 306.423 311.65 305.772C312.149 306.246 312.594 306.772 312.979 307.343C313.898 308.785 314.237 310.69 315.641 311.648C316.835 312.466 318.604 312.423 319.443 313.607C319.713 314.061 319.915 314.552 320.045 315.065C320.532 316.334 321.263 317.494 322.197 318.482C322.517 319.663 322.962 320.807 323.525 321.893C324.317 323.569 325.106 325.239 325.891 326.903C326.698 328.7 327.596 330.455 328.58 332.161C329.332 333.235 329.937 334.404 330.382 335.637C331.14 338.295 329.903 341.212 327.946 343.17C325.988 345.129 323.407 346.254 320.863 347.303C320.595 347.394 320.349 347.541 320.142 347.734C319.922 347.995 319.805 348.328 319.814 348.67C319.814 349.913 320.836 350.978 322.008 351.361C323.207 351.683 324.463 351.729 325.681 351.495C332.554 350.661 339.406 348.982 345.483 345.64C346.392 345.209 347.197 344.587 347.844 343.816C348.156 343.428 348.358 342.962 348.427 342.469C348.496 341.975 348.43 341.472 348.236 341.013Z" fill="url(#paint0_linear)"/>
<path d="M319.19 220.341C320.338 222.102 321.413 223.907 322.417 225.754C323.12 226.976 323.692 228.27 324.122 229.612C324.746 231.765 324.73 234.063 325.197 236.258C325.735 238.841 326.994 241.306 326.994 243.953C326.912 246.247 326.118 248.459 324.724 250.281C323.334 252.088 321.743 253.731 319.981 255.178C315.92 244.651 313.651 233.518 313.269 222.24C313.215 220.68 313.205 219.071 313.775 217.613C314.124 216.698 315.802 214.19 316.883 215.175C317.276 215.535 317.378 217.16 317.62 217.704C318.073 218.623 318.598 219.505 319.19 220.341Z" fill="#2F2E41"/>
<path opacity="0.1" d="M319.19 220.341C320.338 222.102 321.413 223.907 322.417 225.754C323.12 226.976 323.692 228.27 324.122 229.612C324.746 231.765 324.73 234.063 325.197 236.258C325.735 238.841 326.994 241.306 326.994 243.953C326.912 246.247 326.118 248.459 324.724 250.281C323.334 252.088 321.743 253.731 319.981 255.178C315.92 244.651 313.651 233.518 313.269 222.24C313.215 220.68 313.205 219.071 313.775 217.613C314.124 216.698 315.802 214.19 316.883 215.175C317.276 215.535 317.378 217.16 317.62 217.704C318.073 218.623 318.598 219.505 319.19 220.341Z" fill="black"/>
<path d="M177.407 146.926C173.153 151.177 172.642 153.05 170.087 153.895C167.533 154.739 158.342 159.502 161.23 164.781L168.996 169.914L169.222 170.065L170.41 173.638L158.665 194.56C158.665 194.56 139.304 185.702 137.406 198.805C135.507 211.909 136.712 215.487 136.201 222.482C135.69 229.478 136.368 231.501 134.663 231.501C132.958 231.501 132.286 226.906 132.286 226.906C132.286 226.906 132.178 226.696 131.99 226.303C129.457 221.035 112.264 182.361 139.804 155.778C139.804 155.778 152.561 154.939 155.632 140.302C157.75 130.185 165.161 131.057 170.087 133.118C171.688 133.746 173.18 134.623 174.508 135.717C175.703 136.849 176.765 138.113 177.676 139.484C179.079 141.701 179.843 144.483 177.407 146.926Z" fill="#D0D2D5"/>
<path opacity="0.1" d="M169.222 170.065L170.41 173.638L158.665 194.56C158.665 194.56 139.304 185.702 137.406 198.805C135.507 211.908 136.712 215.487 136.201 222.482C135.69 229.478 136.368 231.501 134.663 231.501C132.958 231.501 132.286 226.906 132.286 226.906C132.286 226.906 132.178 226.696 131.99 226.303C131.135 219.76 126.801 181.484 142.515 183.518C142.515 183.518 155.266 189.48 157.304 187.101C158.917 185.218 166.081 174.386 168.996 169.941L169.222 170.065Z" fill="black"/>
<path opacity="0.1" d="M177.676 139.452L169.91 148.282C169.91 148.282 160.891 160.357 159.02 159.846C158.459 159.724 157.888 159.657 157.315 159.647C156.691 159.599 156.093 159.375 155.59 159.001C155.088 158.627 154.702 158.118 154.477 157.534C154.251 156.949 154.197 156.313 154.318 155.698C154.44 155.084 154.733 154.516 155.164 154.061C158.24 150.833 163.908 144.704 164.279 143.342C164.65 141.981 168.259 136.013 170.066 133.091C171.667 133.719 173.159 134.596 174.487 135.69C175.688 136.819 176.758 138.081 177.676 139.452Z" fill="black"/>
<path d="M397.396 266.495C396.078 269.131 389.329 279.022 386.377 283.343L384.995 285.377C384.995 285.377 384.457 288.95 375.642 284.522C366.828 280.093 159.73 192.655 159.73 192.655L158.326 188.436L168.544 173.127L395.53 260.877C395.53 260.877 399.101 263.088 397.396 266.495Z" fill="#454B69"/>
<path opacity="0.1" d="M386.377 283.343L384.995 285.377C384.995 285.377 384.457 288.95 375.642 284.521C366.828 280.093 159.73 192.655 159.73 192.655L158.326 188.436L386.377 283.343Z" fill="black"/>
<path d="M261.458 226.228C259.356 225.883 257.022 226.05 255.387 227.417C254.399 228.254 253.774 229.443 253.644 230.732C253.504 232.222 254.37 233.993 255.865 234.106C256.225 234.11 256.585 234.086 256.941 234.036C257.885 234.032 258.828 234.111 259.759 234.272C261.591 234.445 263.437 234.175 265.143 233.486C266.848 232.797 268.364 231.708 269.563 230.312C270.848 228.698 269.154 227.998 267.638 227.675C265.562 227.234 263.534 226.561 261.458 226.228Z" fill="#FBBEBE"/>
<path d="M297.426 274.825L298.76 284.306C298.929 285.285 298.998 286.279 298.964 287.271C298.808 289.504 297.619 291.506 296.764 293.573C295.909 295.639 295.388 298.114 296.522 300.03C296.872 300.627 297.361 301.138 297.679 301.757C298.082 302.714 298.265 303.749 298.216 304.787L298.582 318.24C302.733 318.523 306.9 318.5 311.048 318.17C311.21 318.177 311.37 318.128 311.5 318.03C311.609 317.891 311.665 317.717 311.656 317.54C311.839 314.392 311.29 311.239 311.468 308.091C311.532 306.939 311.693 305.793 311.715 304.636C311.779 299.949 309.467 295.359 310.166 290.726C310.386 289.557 310.673 288.402 311.027 287.266C313.237 279.194 312.769 270.714 312.28 262.378C312.288 262.244 312.25 262.111 312.172 262.001C312.093 261.922 311.992 261.868 311.882 261.845C309.529 261.139 307.041 261.01 304.628 261.469C302.214 261.928 299.947 262.961 298.017 264.482C297.431 264.956 295.952 265.413 295.565 265.978C295.027 266.764 295.732 267.549 296.044 268.384C296.735 270.475 297.198 272.634 297.426 274.825Z" fill="#3F3D56"/>
<path opacity="0.1" d="M297.426 274.825L298.76 284.306C298.929 285.285 298.998 286.279 298.964 287.271C298.808 289.504 297.619 291.506 296.764 293.573C295.909 295.639 295.388 298.114 296.522 300.03C296.872 300.627 297.361 301.138 297.679 301.757C298.082 302.714 298.265 303.749 298.216 304.787L298.582 318.24C302.733 318.523 306.9 318.5 311.048 318.17C311.21 318.177 311.37 318.128 311.5 318.03C311.609 317.891 311.665 317.717 311.656 317.54C311.839 314.392 311.29 311.239 311.468 308.091C311.532 306.939 311.693 305.793 311.715 304.636C311.779 299.949 309.467 295.359 310.166 290.726C310.386 289.557 310.673 288.402 311.027 287.266C313.237 279.194 312.769 270.714 312.28 262.378C312.288 262.244 312.25 262.111 312.172 262.001C312.093 261.922 311.992 261.868 311.882 261.845C309.529 261.139 307.041 261.01 304.628 261.469C302.214 261.928 299.947 262.961 298.017 264.482C297.431 264.956 295.952 265.413 295.565 265.978C295.027 266.764 295.732 267.549 296.044 268.384C296.735 270.475 297.198 272.634 297.426 274.825Z" fill="black"/>
<path d="M322.363 271.967C321.734 273.275 320.89 274.491 320.513 275.896C319.534 279.603 322.067 283.429 321.766 287.228C321.669 288.428 321.298 289.596 321.271 290.796C321.245 291.996 321.686 293.33 322.75 293.885C323.466 294.251 324.364 294.213 325.036 294.633C326.171 295.327 326.3 296.903 326.187 298.227C326.074 299.551 325.886 301.031 326.725 302.064C327.365 302.866 328.462 303.178 329.15 303.937C329.56 304.481 329.908 305.07 330.188 305.691C331.215 307.488 333.092 308.586 334.63 309.996C336.168 311.406 337.47 313.472 336.781 315.425C336.276 316.857 334.856 317.739 333.49 318.412C330.998 319.644 328.367 320.575 325.654 321.183C325.363 321.271 325.055 321.288 324.756 321.232C324.454 321.121 324.184 320.936 323.971 320.693C322.385 319.138 320.744 317.508 320.013 315.415C319.883 314.907 319.68 314.422 319.411 313.972C318.572 312.794 316.802 312.837 315.609 312.024C314.21 311.072 313.871 309.183 312.957 307.757C312.043 306.331 310.704 305.481 309.73 304.227C308.085 302.139 307.681 299.352 306.504 296.968C306.004 295.956 305.364 295.009 304.966 293.955C304.564 292.69 304.317 291.382 304.229 290.059C303.471 283.774 301.54 277.445 302.755 271.225C303.024 269.858 303.438 268.534 303.61 267.124C303.906 264.687 303.438 262.19 303.799 259.758C303.807 259.452 303.885 259.153 304.026 258.882C304.166 258.61 304.366 258.375 304.611 258.192C304.901 258.061 305.217 257.997 305.536 258.003C308.724 257.833 311.92 257.905 315.098 258.219C316.711 258.375 318.518 258.703 319.486 260.021C320.309 261.151 320.266 262.663 320.529 264.036C320.857 265.725 321.712 266.645 322.611 267.969C323.509 269.293 323.025 270.601 322.363 271.967Z" fill="#3F3D56"/>
<path d="M309.956 315.694C310.806 315.694 311.747 315.641 312.403 316.179C313.221 316.851 313.232 318.084 313.102 319.133C312.726 322.082 311.763 324.918 310.801 327.743L307.94 336.143C307.487 337.341 307.152 338.581 306.939 339.845C306.66 341.997 307.09 344.15 307.144 346.302C307.144 347.379 307.074 348.573 306.402 349.439C305.186 351.005 302.814 350.822 300.862 350.516L291.338 348.901C290.535 348.794 289.745 348.601 288.982 348.326C288.188 347.958 287.423 347.528 286.697 347.039C284.812 345.962 282.832 345.061 280.781 344.349C279.888 344.015 278.888 343.59 278.565 342.692C278.184 341.615 279.033 340.431 280.087 340.001C281.141 339.57 282.319 339.678 283.459 339.71C286.263 339.8 289.062 339.421 291.741 338.591C292.548 338.393 293.297 338.006 293.925 337.461C294.563 336.744 294.997 335.869 295.183 334.927C295.995 332.122 296.478 329.233 296.625 326.317C296.737 324.164 296.662 322.012 296.748 319.859C296.802 318.584 296.678 314.478 297.797 313.601C298.652 312.945 302.169 314.758 303.325 315.022C305.499 315.52 307.727 315.746 309.956 315.694Z" fill="#2F2E41"/>
<path d="M341.331 321.678C342.262 324.762 342.407 328.023 343.009 331.192C343.611 334.362 344.676 337.596 347.026 339.802C347.484 340.165 347.878 340.602 348.193 341.093C348.392 341.554 348.459 342.061 348.388 342.557C348.317 343.054 348.11 343.521 347.79 343.908C347.141 344.673 346.336 345.291 345.429 345.721C339.357 349.036 332.522 350.709 325.633 351.538C324.416 351.766 323.163 351.72 321.965 351.404C320.793 351.005 319.755 349.951 319.776 348.713C319.765 348.373 319.88 348.042 320.099 347.782C320.308 347.591 320.556 347.446 320.825 347.357C323.363 346.313 325.94 345.178 327.902 343.251C329.865 341.325 331.097 338.408 330.339 335.793C329.89 334.568 329.28 333.408 328.526 332.344C327.543 330.652 326.646 328.912 325.837 327.129L323.471 322.163C322.777 320.71 322.078 319.214 321.96 317.61C324.932 317.743 327.901 317.267 330.683 316.211C331.981 315.681 333.191 314.955 334.27 314.059C335.184 313.294 336.018 311.868 337.249 312.864C338.239 313.66 338.863 315.904 339.443 317.04C340.198 318.532 340.829 320.083 341.331 321.678Z" fill="#2F2E41"/>
<path d="M306.654 198.348C306.891 200.414 308.891 201.776 310.801 202.594L298.716 206.452C299.496 204.956 298.867 203.126 298.093 201.609C297.462 200.408 296.743 199.255 295.941 198.16C295.823 197.993 295.689 197.783 295.775 197.589C295.851 197.463 295.972 197.369 296.114 197.326C298.598 196.217 301.158 195.071 303.874 194.667C304.659 194.554 306.143 194.242 306.73 195.039C307.316 195.835 306.541 197.396 306.654 198.348Z" fill="#FBBEBE"/>
<path opacity="0.1" d="M306.654 198.348C306.891 200.414 308.891 201.776 310.801 202.594L298.716 206.452C299.496 204.956 298.867 203.126 298.093 201.609C297.462 200.408 296.743 199.255 295.941 198.16C295.823 197.993 295.689 197.783 295.775 197.589C295.851 197.463 295.972 197.369 296.114 197.326C298.598 196.217 301.158 195.071 303.874 194.667C304.659 194.554 306.143 194.242 306.73 195.039C307.316 195.835 306.541 197.396 306.654 198.348Z" fill="black"/>
<path d="M299.631 200.022C304.864 200.022 309.107 195.777 309.107 190.54C309.107 185.304 304.864 181.058 299.631 181.058C294.397 181.058 290.155 185.304 290.155 190.54C290.155 195.777 294.397 200.022 299.631 200.022Z" fill="#FBBEBE"/>
<path d="M291.419 268.566C292.338 269.67 293.957 269.885 295.371 269.643C298.679 269.105 301.384 266.667 304.621 265.79C308.59 264.714 312.791 266.097 316.539 267.792C320.287 269.487 324.014 271.558 328.112 271.849C324.407 263.584 326.526 253.639 322.982 245.304C322.116 243.264 320.906 241.3 320.712 239.094C320.47 236.355 321.836 233.713 322.046 230.99C322.24 228.563 321.508 226.147 320.809 223.833C319.945 220.992 319.081 218.151 318.217 215.309C317.249 212.129 316.254 208.895 314.377 206.162C313.683 205.155 313.474 203.116 312.419 202.508C310.118 201.179 306.627 202.852 304.132 202.944C301.637 203.035 299.362 204.811 297.904 206.818C296.361 208.938 295.484 211.462 294.678 213.959C293.393 217.677 292.434 221.499 291.811 225.383C291.731 225.964 291.661 226.545 291.607 227.132C291.069 232.658 291.854 238.217 291.897 243.77V243.808C291.951 250.852 290.822 257.853 290.612 264.891C290.59 266.177 290.623 267.582 291.419 268.566Z" fill="#2F2E41"/>
<path opacity="0.1" d="M291.913 243.775C293.769 243.307 295.447 242.107 296.888 240.794C298.136 239.676 299.245 238.412 300.19 237.028C301.38 235.167 302.335 233.166 303.035 231.071C305.026 225.467 306.291 219.631 306.8 213.706C306.939 212.091 306.982 210.359 306.02 209.078C305.479 208.384 304.72 207.894 303.866 207.687C303.011 207.48 302.112 207.568 301.314 207.937C300.045 208.556 299.222 209.81 298.458 211.01C296.947 213.388 295.425 215.799 294.452 218.447C294.022 219.62 293.704 220.825 293.285 222.003C292.858 223.166 292.366 224.303 291.811 225.41C291.731 225.991 291.661 226.572 291.607 227.159C291.107 232.685 291.87 238.222 291.913 243.775Z" fill="black"/>
<path d="M305.993 208.04C306.955 209.32 306.912 211.069 306.778 212.662C306.271 218.588 305.006 224.424 303.013 230.027C302.32 232.14 301.364 234.157 300.169 236.032C299.222 237.415 298.113 238.68 296.866 239.799C295.038 241.467 292.812 242.958 290.332 242.979C288.937 242.914 287.562 242.613 286.267 242.091L266.073 235.214C265.868 234.063 266.68 232.717 267.062 231.609L268.138 228.418C268.444 227.535 268.799 226.583 269.6 226.104C270.402 225.625 271.671 226.282 272.338 226.814C273.005 227.347 273.51 228.047 274.166 228.59C275.409 229.623 277.049 230.011 278.63 230.366L283.164 231.383C284.807 231.833 286.504 232.06 288.208 232.056C289.472 228.192 291.876 224.791 293.236 220.96C293.656 219.787 293.973 218.576 294.409 217.403C295.377 214.755 296.904 212.35 298.415 209.966C299.174 208.771 299.996 207.518 301.271 206.893C302.071 206.52 302.975 206.429 303.833 206.638C304.691 206.846 305.453 207.34 305.993 208.04Z" fill="#2F2E41"/>
<path d="M302.653 192.682C302.581 192.058 302.388 191.455 302.083 190.906C301.925 190.631 301.683 190.414 301.393 190.286C301.102 190.159 300.779 190.127 300.47 190.196C299.523 190.492 299.206 191.955 298.216 192.004C297.549 192.036 297.071 191.358 296.861 190.723C296.651 190.088 296.538 189.362 296.038 188.915C295.69 188.654 295.29 188.471 294.866 188.377C292.569 187.65 290.198 186.311 289.434 184.024C289.255 183.559 289.212 183.053 289.311 182.565C289.66 181.118 291.462 180.682 292.833 180.16C294.204 179.638 295.522 178.745 296.866 178.067C298.211 177.389 299.771 176.91 301.249 177.254C302 177.49 302.738 177.765 303.46 178.077C305.686 178.852 308.413 178.492 310.139 180.101C310.893 180.899 311.447 181.865 311.753 182.92C312.957 186.267 313.721 190.239 311.726 193.177C310.494 194.99 309.3 197.062 306.934 197.283C304.18 197.514 303.089 195.017 302.653 192.682Z" fill="#2F2E41"/>
<g opacity="0.1">
<path opacity="0.1" d="M298.448 189.582C298.238 188.947 298.125 188.221 297.63 187.774C297.282 187.514 296.882 187.33 296.458 187.236C294.156 186.51 291.79 185.17 291.021 182.883C290.845 182.417 290.804 181.912 290.902 181.424C290.955 181.195 291.052 180.977 291.187 180.784C290.311 181.166 289.547 181.672 289.332 182.565C289.233 183.053 289.276 183.559 289.456 184.023C290.219 186.31 292.591 187.65 294.887 188.377C295.312 188.471 295.712 188.654 296.06 188.915C296.56 189.362 296.667 190.083 296.883 190.723C297.098 191.363 297.571 192.036 298.238 192.004C298.905 191.971 299.227 191.363 299.652 190.852C299.066 190.777 298.641 190.174 298.448 189.582Z" fill="black"/>
<path opacity="0.1" d="M308.515 196.126C305.751 196.379 304.659 193.86 304.213 191.541C304.154 190.919 303.971 190.315 303.675 189.765C303.516 189.491 303.274 189.275 302.984 189.147C302.694 189.019 302.371 188.987 302.062 189.055C301.571 189.293 301.159 189.666 300.873 190.131C301.12 190.155 301.358 190.235 301.569 190.366C301.779 190.496 301.957 190.674 302.088 190.884C302.393 191.433 302.587 192.037 302.659 192.66C303.094 194.979 304.186 197.503 306.961 197.245C308.058 197.124 309.07 196.598 309.8 195.771C309.395 195.96 308.96 196.08 308.515 196.126Z" fill="black"/>
</g>
<path d="M419.284 296.225C428.875 296.225 436.649 294.729 436.649 292.884C436.649 291.038 428.875 289.542 419.284 289.542C409.694 289.542 401.919 291.038 401.919 292.884C401.919 294.729 409.694 296.225 419.284 296.225Z" fill="#6C63FF"/>
<path d="M418.994 294.111C420.11 294.111 421.016 292.925 421.016 291.463C421.016 290.001 420.11 288.816 418.994 288.816C417.877 288.816 416.972 290.001 416.972 291.463C416.972 292.925 417.877 294.111 418.994 294.111Z" fill="#3F3D56"/>
<path d="M418.994 290.871C420.11 290.871 421.016 289.686 421.016 288.224C421.016 286.762 420.11 285.576 418.994 285.576C417.877 285.576 416.972 286.762 416.972 288.224C416.972 289.686 417.877 290.871 418.994 290.871Z" fill="#3F3D56"/>
<path d="M418.994 287.637C420.11 287.637 421.016 286.452 421.016 284.99C421.016 283.528 420.11 282.342 418.994 282.342C417.877 282.342 416.972 283.528 416.972 284.99C416.972 286.452 417.877 287.637 418.994 287.637Z" fill="#3F3D56"/>
<path d="M418.994 284.398C420.11 284.398 421.016 283.213 421.016 281.75C421.016 280.288 420.11 279.103 418.994 279.103C417.877 279.103 416.972 280.288 416.972 281.75C416.972 283.213 417.877 284.398 418.994 284.398Z" fill="#3F3D56"/>
<path d="M418.994 281.158C420.11 281.158 421.016 279.973 421.016 278.511C421.016 277.049 420.11 275.863 418.994 275.863C417.877 275.863 416.972 277.049 416.972 278.511C416.972 279.973 417.877 281.158 418.994 281.158Z" fill="#3F3D56"/>
<path d="M418.994 277.924C420.11 277.924 421.016 276.739 421.016 275.277C421.016 273.815 420.11 272.629 418.994 272.629C417.877 272.629 416.972 273.815 416.972 275.277C416.972 276.739 417.877 277.924 418.994 277.924Z" fill="#3F3D56"/>
<path d="M418.994 274.685C420.11 274.685 421.016 273.5 421.016 272.037C421.016 270.575 420.11 269.39 418.994 269.39C417.877 269.39 416.972 270.575 416.972 272.037C416.972 273.5 417.877 274.685 418.994 274.685Z" fill="#3F3D56"/>
<path d="M426.56 249.905C426.836 249.553 427.088 249.182 427.313 248.796L422 247.924L427.749 247.962C428.298 246.761 428.597 245.461 428.628 244.141C428.66 242.821 428.423 241.509 427.932 240.283L420.22 244.287L427.329 239.056C426.662 237.907 425.766 236.908 424.696 236.12C423.627 235.333 422.406 234.774 421.112 234.478C419.817 234.183 418.475 234.157 417.17 234.403C415.865 234.648 414.624 235.16 413.525 235.906C412.426 236.652 411.492 237.616 410.781 238.739C410.071 239.861 409.598 241.118 409.394 242.431C409.19 243.744 409.258 245.085 409.593 246.371C409.929 247.657 410.526 248.86 411.346 249.905C410.914 250.451 410.543 251.043 410.238 251.67L417.138 255.259L409.781 252.789C409.268 254.314 409.142 255.943 409.415 257.529C409.688 259.115 410.352 260.607 411.346 261.872C410.224 263.301 409.527 265.017 409.333 266.824C409.14 268.631 409.459 270.456 410.253 272.09C411.047 273.725 412.284 275.103 413.824 276.067C415.363 277.03 417.143 277.542 418.959 277.542C420.775 277.542 422.554 277.03 424.094 276.067C425.633 275.103 426.871 273.725 427.665 272.09C428.459 270.456 428.777 268.631 428.584 266.824C428.391 265.017 427.693 263.301 426.571 261.872C427.915 260.164 428.646 258.054 428.646 255.88C428.646 253.707 427.915 251.596 426.571 249.888L426.56 249.905Z" fill="#6C63FF"/>
<path opacity="0.1" d="M409.26 255.878C409.259 258.054 409.994 260.167 411.346 261.872C410.225 263.301 409.527 265.017 409.334 266.824C409.14 268.631 409.459 270.456 410.253 272.09C411.047 273.725 412.284 275.103 413.824 276.067C415.363 277.031 417.143 277.542 418.959 277.542C420.775 277.542 422.554 277.031 424.094 276.067C425.633 275.103 426.871 273.725 427.665 272.09C428.459 270.456 428.777 268.631 428.584 266.824C428.391 265.017 427.693 263.301 426.571 261.872C427.857 260.22 409.26 254.791 409.26 255.878Z" fill="black"/>
<path d="M61.8191 362.855C75.6273 362.855 86.821 360.701 86.821 358.044C86.821 355.387 75.6273 353.233 61.8191 353.233C48.0109 353.233 36.8171 355.387 36.8171 358.044C36.8171 360.701 48.0109 362.855 61.8191 362.855Z" fill="#6C63FF"/>
<path d="M61.3996 359.814C63.0065 359.814 64.3091 358.106 64.3091 355.999C64.3091 353.892 63.0065 352.184 61.3996 352.184C59.7928 352.184 58.4902 353.892 58.4902 355.999C58.4902 358.106 59.7928 359.814 61.3996 359.814Z" fill="#3F3D56"/>
<path d="M61.3996 355.154C63.0065 355.154 64.3091 353.446 64.3091 351.339C64.3091 349.232 63.0065 347.524 61.3996 347.524C59.7928 347.524 58.4902 349.232 58.4902 351.339C58.4902 353.446 59.7928 355.154 61.3996 355.154Z" fill="#3F3D56"/>
<path d="M61.3996 350.494C63.0065 350.494 64.3091 348.786 64.3091 346.679C64.3091 344.572 63.0065 342.864 61.3996 342.864C59.7928 342.864 58.4902 344.572 58.4902 346.679C58.4902 348.786 59.7928 350.494 61.3996 350.494Z" fill="#3F3D56"/>
<path d="M61.3996 345.834C63.0065 345.834 64.3091 344.126 64.3091 342.019C64.3091 339.912 63.0065 338.204 61.3996 338.204C59.7928 338.204 58.4902 339.912 58.4902 342.019C58.4902 344.126 59.7928 345.834 61.3996 345.834Z" fill="#3F3D56"/>
<path d="M61.3996 341.174C63.0065 341.174 64.3091 339.466 64.3091 337.359C64.3091 335.252 63.0065 333.544 61.3996 333.544C59.7928 333.544 58.4902 335.252 58.4902 337.359C58.4902 339.466 59.7928 341.174 61.3996 341.174Z" fill="#3F3D56"/>
<path d="M61.3996 337.509C63.0065 337.509 64.3091 335.8 64.3091 333.693C64.3091 331.586 63.0065 329.878 61.3996 329.878C59.7928 329.878 58.4902 331.586 58.4902 333.693C58.4902 335.8 59.7928 337.509 61.3996 337.509Z" fill="#3F3D56"/>
<path d="M61.3996 331.849C63.0065 331.849 64.3091 330.14 64.3091 328.033C64.3091 325.926 63.0065 324.218 61.3996 324.218C59.7928 324.218 58.4902 325.926 58.4902 328.033C58.4902 330.14 59.7928 331.849 61.3996 331.849Z" fill="#3F3D56"/>
<path d="M72.2953 296.145C72.689 295.631 73.0484 295.092 73.3708 294.53L65.7234 293.271L73.9947 293.336C74.7874 291.607 75.2197 289.735 75.265 287.834C75.3103 285.933 74.9677 284.042 74.2582 282.278L63.1689 288.057L73.387 280.523C72.4301 278.862 71.1414 277.416 69.6012 276.275C68.061 275.135 66.3023 274.324 64.435 273.894C62.5677 273.463 60.6318 273.423 58.7481 273.774C56.8644 274.126 55.0733 274.862 53.4866 275.937C51.8999 277.012 50.5517 278.403 49.526 280.022C48.5003 281.642 47.8192 283.455 47.5252 285.35C47.2312 287.245 47.3306 289.18 47.8172 291.034C48.3038 292.889 49.1671 294.623 50.3534 296.129C49.7253 296.914 49.1843 297.766 48.74 298.669L58.673 303.834L48.0839 300.277C47.3417 302.483 47.1626 304.839 47.5627 307.131C47.9628 309.423 48.9295 311.579 50.3749 313.402C48.7568 315.46 47.7502 317.932 47.4702 320.536C47.1901 323.14 47.648 325.769 48.7913 328.125C49.9346 330.48 51.7173 332.466 53.9356 333.856C56.1538 335.245 58.718 335.982 61.3351 335.982C63.9521 335.982 66.5163 335.245 68.7346 333.856C70.9528 332.466 72.7355 330.48 73.8788 328.125C75.0222 325.769 75.48 323.14 75.1999 320.536C74.9199 317.932 73.9133 315.46 72.2953 313.402C74.2292 310.943 75.2807 307.905 75.2807 304.776C75.2807 301.647 74.2292 298.609 72.2953 296.15V296.145Z" fill="#6C63FF"/>
<path opacity="0.1" d="M47.3902 304.792C47.3907 307.916 48.442 310.949 50.3749 313.402C48.7568 315.46 47.7502 317.932 47.4702 320.536C47.1902 323.139 47.648 325.769 48.7913 328.125C49.9347 330.48 51.7174 332.466 53.9356 333.856C56.1538 335.245 58.718 335.982 61.3351 335.982C63.9521 335.982 66.5164 335.245 68.7346 333.856C70.9528 332.466 72.7355 330.48 73.8789 328.125C75.0222 325.769 75.48 323.139 75.2 320.536C74.9199 317.932 73.9133 315.46 72.2953 313.402C74.1507 311.024 47.3902 303.205 47.3902 304.792Z" fill="black"/>
<defs>
<linearGradient id="paint0_linear" x1="305.687" y1="352.381" x2="298.561" y2="175.814" gradientUnits="userSpaceOnUse">
<stop stop-color="#808080" stop-opacity="0.25"/>
<stop offset="0.54" stop-color="#808080" stop-opacity="0.12"/>
<stop offset="1" stop-color="#808080" stop-opacity="0.1"/>
</linearGradient>
</defs>
</svg>
