<svg width="238" height="875" viewBox="0 0 238 875" fill="none" xmlns="http://www.w3.org/2000/svg">
<g clip-path="url(#clip0)">
<path opacity="0.9" d="M259.562 171.574H0.396667V241.928H36.5642V790.799C36.421 801.72 38.4495 812.56 42.532 822.691C46.6144 832.821 52.6695 842.041 60.3459 849.814C68.0222 857.587 77.1668 863.759 87.249 867.972C97.3312 872.184 108.15 874.353 119.078 874.353C130.006 874.353 140.825 872.184 150.907 867.972C160.989 863.759 170.134 857.587 177.81 849.814C185.486 842.041 191.541 832.821 195.624 822.691C199.706 812.56 201.735 801.72 201.592 790.799V241.928H259.562V171.574Z" fill="#D5E2FF"/>
<path d="M91.545 366.282C91.545 366.282 150.28 345.314 166.628 360.223C166.628 360.223 142.842 395.166 120.941 393.764C99.0392 392.363 91.545 366.282 91.545 366.282Z" fill="#ABB8FF"/>
<path opacity="0.1" d="M91.545 366.282C91.545 366.282 150.28 345.314 166.628 360.223C166.628 360.223 142.842 395.166 120.941 393.764C99.0392 392.363 91.545 366.282 91.545 366.282Z" fill="black"/>
<path d="M166.6 360.279V758.645C166.6 765.253 165.298 771.796 162.767 777.901C160.237 784.006 156.529 789.554 151.853 794.226C147.178 798.899 141.628 802.605 135.519 805.134C129.411 807.663 122.864 808.964 116.252 808.964C102.898 808.964 90.0921 803.663 80.65 794.226C71.2079 784.789 65.9033 771.99 65.9033 758.645V360.279C65.9033 360.279 90.1425 353.752 112.979 367.741C135.816 381.729 166.6 360.279 166.6 360.279Z" fill="#ABB8FF"/>
<path opacity="0.1" d="M201.563 241.489H36.5358V244.731H201.563V241.489Z" fill="black"/>
<path opacity="0.1" d="M116.252 784.739C109.639 784.739 103.09 783.437 96.9809 780.907C90.8715 778.378 85.3205 774.67 80.645 769.996C75.9695 765.322 72.2612 759.773 69.7318 753.666C67.2024 747.559 65.9015 741.015 65.9033 734.405V759.565C65.9033 772.911 71.2079 785.71 80.65 795.146C90.0921 804.583 102.898 809.885 116.252 809.885C129.605 809.885 142.411 804.583 151.853 795.146C161.295 785.71 166.6 772.911 166.6 759.565V734.405C166.602 741.015 165.301 747.559 162.772 753.666C160.242 759.773 156.534 765.322 151.858 769.996C147.183 774.67 141.632 778.378 135.522 780.907C129.413 783.437 122.865 784.739 116.252 784.739V784.739Z" fill="black"/>
<path opacity="0.3" d="M116.266 321.159C121.93 321.159 126.522 316.569 126.522 310.908C126.522 305.247 121.93 300.657 116.266 300.657C110.601 300.657 106.009 305.247 106.009 310.908C106.009 316.569 110.601 321.159 116.266 321.159Z" fill="#ABB8FF"/>
<path opacity="0.3" d="M149.827 281.09C153.434 281.09 156.357 278.168 156.357 274.563C156.357 270.958 153.434 268.036 149.827 268.036C146.22 268.036 143.296 270.958 143.296 274.563C143.296 278.168 146.22 281.09 149.827 281.09Z" fill="#ABB8FF"/>
<path opacity="0.3" d="M104.139 268.05C107.746 268.05 110.67 265.128 110.67 261.523C110.67 257.918 107.746 254.996 104.139 254.996C100.532 254.996 97.6083 257.918 97.6083 261.523C97.6083 265.128 100.532 268.05 104.139 268.05Z" fill="#ABB8FF"/>
<path opacity="0.2" d="M49.3142 441.663C47.7558 454.037 48.0675 469.527 59.1316 475.303C49.8383 470.461 87.89 415.568 82.4925 404.341C70.9183 380.441 50.7308 430.18 49.3142 441.663Z" fill="white"/>
<path opacity="0.3" d="M137.544 127.555C151.307 127.555 162.463 116.404 162.463 102.65C162.463 88.8949 151.307 77.7446 137.544 77.7446C123.782 77.7446 112.625 88.8949 112.625 102.65C112.625 116.404 123.782 127.555 137.544 127.555Z" fill="white"/>
<path opacity="0.3" d="M62.7867 78.4668C73.0205 78.4668 81.3167 70.1754 81.3167 59.9474C81.3167 49.7194 73.0205 41.428 62.7867 41.428C52.5528 41.428 44.2567 49.7194 44.2567 59.9474C44.2567 70.1754 52.5528 78.4668 62.7867 78.4668Z" fill="white"/>
<path opacity="0.3" d="M116.181 19.7654C121.501 19.7654 125.814 15.4549 125.814 10.1376C125.814 4.8203 121.501 0.509766 116.181 0.509766C110.86 0.509766 106.548 4.8203 106.548 10.1376C106.548 15.4549 110.86 19.7654 116.181 19.7654Z" fill="white"/>
</g>
<defs>
<clipPath id="clip0">
<rect width="238" height="875" fill="white"/>
</clipPath>
</defs>
</svg>
