<svg width="1080" height="1080" viewBox="0 0 1080 1080" fill="none" xmlns="http://www.w3.org/2000/svg">
<g clip-path="url(#clip0)">
<rect width="1080" height="1080" fill="#2262B6"/>
<path d="M656.763 282.014V212L1317.5 497.5L1057.5 1183L490 898.794L620.25 417.061V282.014H656.763Z" fill="url(#paint0_linear)"/>
<g clip-path="url(#clip1)">
<path opacity="0.9" d="M680.562 212.574H421.397V282.928H457.564V831.799C457.421 842.72 459.45 853.56 463.532 863.691C467.614 873.821 473.67 883.041 481.346 890.814C489.022 898.587 498.167 904.759 508.249 908.972C518.331 913.184 529.15 915.353 540.078 915.353C551.006 915.353 561.825 913.184 571.907 908.972C581.989 904.759 591.134 898.587 598.81 890.814C606.486 883.041 612.541 873.821 616.624 863.691C620.706 853.56 622.735 842.72 622.592 831.799V282.928H680.562V212.574Z" fill="#D5E2FF"/>
<path d="M512.545 407.282C512.545 407.282 571.28 386.314 587.628 401.223C587.628 401.223 563.842 436.166 541.941 434.764C520.039 433.363 512.545 407.282 512.545 407.282Z" fill="#ABB8FF"/>
<path opacity="0.1" d="M512.545 407.282C512.545 407.282 571.28 386.314 587.628 401.223C587.628 401.223 563.842 436.166 541.941 434.764C520.039 433.363 512.545 407.282 512.545 407.282Z" fill="black"/>
<path d="M587.6 401.279V799.645C587.6 806.253 586.298 812.796 583.767 818.901C581.237 825.006 577.529 830.554 572.853 835.226C568.178 839.899 562.628 843.605 556.519 846.134C550.411 848.663 543.864 849.964 537.252 849.964C523.898 849.964 511.092 844.663 501.65 835.226C492.208 825.789 486.903 812.99 486.903 799.645V401.279C486.903 401.279 511.143 394.752 533.979 408.741C556.816 422.729 587.6 401.279 587.6 401.279Z" fill="#ABB8FF"/>
<path opacity="0.1" d="M622.563 282.489H457.536V285.731H622.563V282.489Z" fill="black"/>
<path opacity="0.1" d="M537.252 825.739C530.639 825.739 524.09 824.437 517.981 821.907C511.871 819.378 506.32 815.67 501.645 810.996C496.97 806.322 493.261 800.773 490.732 794.666C488.202 788.559 486.901 782.015 486.903 775.405V800.565C486.903 813.911 492.208 826.71 501.65 836.146C511.092 845.583 523.898 850.885 537.252 850.885C550.605 850.885 563.411 845.583 572.853 836.146C582.295 826.71 587.6 813.911 587.6 800.565V775.405C587.602 782.015 586.301 788.559 583.772 794.666C581.242 800.773 577.534 806.322 572.858 810.996C568.183 815.67 562.632 819.378 556.522 821.907C550.413 824.437 543.865 825.739 537.252 825.739V825.739Z" fill="black"/>
<path opacity="0.3" d="M537.266 362.159C542.93 362.159 547.522 357.569 547.522 351.908C547.522 346.247 542.93 341.657 537.266 341.657C531.601 341.657 527.009 346.247 527.009 351.908C527.009 357.569 531.601 362.159 537.266 362.159Z" fill="#ABB8FF"/>
<path opacity="0.3" d="M570.827 322.09C574.434 322.09 577.357 319.168 577.357 315.563C577.357 311.958 574.434 309.036 570.827 309.036C567.22 309.036 564.296 311.958 564.296 315.563C564.296 319.168 567.22 322.09 570.827 322.09Z" fill="#ABB8FF"/>
<path opacity="0.3" d="M525.139 309.05C528.746 309.05 531.67 306.128 531.67 302.523C531.67 298.918 528.746 295.996 525.139 295.996C521.532 295.996 518.608 298.918 518.608 302.523C518.608 306.128 521.532 309.05 525.139 309.05Z" fill="#ABB8FF"/>
<path opacity="0.2" d="M470.314 482.663C468.756 495.037 469.067 510.527 480.132 516.303C470.838 511.461 508.89 456.568 503.493 445.341C491.918 421.441 471.731 471.18 470.314 482.663Z" fill="white"/>
<path opacity="0.3" d="M558.544 168.555C572.307 168.555 583.463 157.404 583.463 143.65C583.463 129.895 572.307 118.745 558.544 118.745C544.782 118.745 533.625 129.895 533.625 143.65C533.625 157.404 544.782 168.555 558.544 168.555Z" fill="white"/>
<path opacity="0.3" d="M483.787 119.467C494.021 119.467 502.317 111.175 502.317 100.947C502.317 90.7194 494.021 82.428 483.787 82.428C473.553 82.428 465.257 90.7194 465.257 100.947C465.257 111.175 473.553 119.467 483.787 119.467Z" fill="white"/>
<path opacity="0.3" d="M537.181 60.7654C542.501 60.7654 546.814 56.4549 546.814 51.1376C546.814 45.8203 542.501 41.5098 537.181 41.5098C531.86 41.5098 527.548 45.8203 527.548 51.1376C527.548 56.4549 531.86 60.7654 537.181 60.7654Z" fill="white"/>
</g>
</g>
<defs>
<linearGradient id="paint0_linear" x1="524" y1="489.5" x2="1088" y2="832.5" gradientUnits="userSpaceOnUse">
<stop stop-opacity="0.1"/>
<stop offset="1" stop-opacity="0.08"/>
</linearGradient>
<clipPath id="clip0">
<rect width="1080" height="1080" fill="white"/>
</clipPath>
<clipPath id="clip1">
<rect width="238" height="875" fill="white" transform="translate(421 41)"/>
</clipPath>
</defs>
</svg>
