<svg width="1935" height="1337" viewBox="0 0 1935 1337" fill="none" xmlns="http://www.w3.org/2000/svg">
<path d="M1924.74 1.0899H1.229V1232.35H1924.74V1.0899Z" fill="#E6E6E6"/>
<path d="M865.73 166.428H171.318V879.604H865.73V166.428Z" fill="white"/>
<path d="M1819.86 180.258H1125.45V1046.45H1819.86V180.258Z" fill="white"/>
<path d="M1810.61 1321.87C1879.31 1321.87 1935 1313.92 1935 1304.11C1935 1294.3 1879.31 1286.34 1810.61 1286.34C1741.91 1286.34 1686.21 1294.3 1686.21 1304.11C1686.21 1313.92 1741.91 1321.87 1810.61 1321.87Z" fill="#E6E6E6"/>
<path d="M566.948 1322.27C635.648 1322.27 691.341 1314.31 691.341 1304.5C691.341 1294.69 635.648 1286.74 566.948 1286.74C498.248 1286.74 442.556 1294.69 442.556 1304.5C442.556 1314.31 498.248 1322.27 566.948 1322.27Z" fill="#E6E6E6"/>
<path d="M1923.92 0H0.407959V81.675H1923.92V0Z" fill="#2262B6"/>
<path d="M61.1338 56.8944C69.4986 56.8944 76.2796 50.1169 76.2796 41.7566C76.2796 33.3962 69.4986 26.6187 61.1338 26.6187C52.7691 26.6187 45.988 33.3962 45.988 41.7566C45.988 50.1169 52.7691 56.8944 61.1338 56.8944Z" fill="#E6E6E6"/>
<path d="M118.623 56.8944C126.988 56.8944 133.769 50.1169 133.769 41.7566C133.769 33.3962 126.988 26.6187 118.623 26.6187C110.259 26.6187 103.478 33.3962 103.478 41.7566C103.478 50.1169 110.259 56.8944 118.623 56.8944Z" fill="#E6E6E6"/>
<path d="M176.113 56.8944C184.478 56.8944 191.259 50.1169 191.259 41.7566C191.259 33.3962 184.478 26.6187 176.113 26.6187C167.748 26.6187 160.967 33.3962 160.967 41.7566C160.967 50.1169 167.748 56.8944 176.113 56.8944Z" fill="#E6E6E6"/>
<path d="M1666.76 412.6H1662.56V297.425C1662.56 288.671 1660.83 280.003 1657.48 271.915C1654.13 263.827 1649.22 256.479 1643.02 250.289C1636.83 244.099 1629.48 239.189 1621.38 235.839C1613.29 232.489 1604.62 230.764 1595.86 230.764H1351.72C1342.96 230.764 1334.29 232.489 1326.2 235.839C1318.1 239.189 1310.75 244.099 1304.56 250.289C1298.37 256.479 1293.45 263.827 1290.1 271.915C1286.75 280.003 1285.02 288.671 1285.02 297.425V929.286C1285.02 938.04 1286.75 946.708 1290.1 954.796C1293.45 962.884 1298.37 970.232 1304.56 976.422C1310.75 982.612 1318.1 987.523 1326.2 990.873C1334.29 994.223 1342.96 995.947 1351.72 995.947H1595.86C1604.62 995.947 1613.29 994.223 1621.38 990.873C1629.48 987.523 1636.83 982.612 1643.02 976.422C1649.22 970.232 1654.13 962.884 1657.48 954.796C1660.83 946.708 1662.56 938.04 1662.56 929.286V494.584H1666.76V412.6Z" fill="#3F3D56"/>
<path d="M1595.82 248.107H1563.95C1565.42 251.698 1565.98 255.595 1565.58 259.453C1565.18 263.311 1563.84 267.013 1561.68 270.232C1559.52 273.451 1556.59 276.088 1553.17 277.912C1549.74 279.736 1545.92 280.69 1542.04 280.691H1402.18C1398.3 280.69 1394.47 279.736 1391.05 277.912C1387.63 276.088 1384.7 273.451 1382.54 270.232C1380.37 267.013 1379.03 263.311 1378.64 259.453C1378.24 255.595 1378.8 251.698 1380.27 248.107H1350.5C1343.96 248.107 1337.48 249.395 1331.44 251.897C1325.4 254.398 1319.91 258.065 1315.28 262.688C1310.66 267.31 1306.99 272.798 1304.49 278.838C1301.98 284.878 1300.69 291.351 1300.69 297.888V928.823C1300.69 935.36 1301.98 941.833 1304.49 947.873C1306.99 953.913 1310.66 959.401 1315.28 964.023C1319.91 968.646 1325.4 972.313 1331.44 974.815C1337.48 977.316 1343.96 978.604 1350.5 978.604H1595.82C1602.36 978.604 1608.84 977.316 1614.88 974.815C1620.92 972.313 1626.41 968.646 1631.04 964.023C1635.66 959.401 1639.33 953.913 1641.84 947.873C1644.34 941.833 1645.63 935.36 1645.63 928.823V297.888C1645.63 284.686 1640.38 272.023 1631.04 262.688C1621.7 253.352 1609.03 248.107 1595.82 248.107V248.107Z" fill="white"/>
<path d="M760.331 616.926H277.676V638.93H760.331V616.926Z" fill="#E6E6E6"/>
<path d="M760.331 687.971H277.676V709.975H760.331V687.971Z" fill="#2262B6"/>
<path d="M760.331 759.015H277.676V781.019H760.331V759.015Z" fill="#E6E6E6"/>
<path d="M1616.78 664.936H1335.01V686.94H1616.78V664.936Z" fill="#E6E6E6"/>
<path d="M1616.78 733.248H1335.01V755.252H1616.78V733.248Z" fill="#E6E6E6"/>
<path d="M1616.78 801.56H1335.01V823.563H1616.78V801.56Z" fill="#E6E6E6"/>
<path d="M1646.24 1143.24V1096.31H1599.28V1143.24H1646.24Z" fill="#3F3D56"/>
<path d="M1570.58 1143.24V1096.31H1523.62V1143.24H1570.58Z" fill="#2262B6"/>
<path d="M1494.92 1143.24V1096.31H1447.96V1143.24H1494.92Z" fill="#3F3D56"/>
<path d="M1419.26 1143.24V1096.31H1372.3V1143.24H1419.26Z" fill="#3F3D56"/>
<path d="M1343.6 1143.24V1096.31H1296.64V1143.24H1343.6Z" fill="#3F3D56"/>
<path d="M1551.43 379.788H1394.89V536.243H1551.43V379.788Z" fill="#2262B6"/>
<path d="M456.788 753.051L454.762 757.101L448.683 726.724C448.683 726.724 440.578 694.322 456.788 694.322C472.997 694.322 468.945 726.724 468.945 726.724V749.001L456.788 753.051Z" fill="#A0616A"/>
<path d="M722.636 748.904L724.662 752.954L730.74 722.577C730.74 722.577 738.845 690.175 722.636 690.175C706.426 690.175 710.478 722.577 710.478 722.577V744.854L722.636 748.904Z" fill="#A0616A"/>
<path d="M545.939 980.795L521.627 1130.65L533.782 1276.46L562.149 1264.31L558.097 1154.95L586.464 1067.87L592.541 1171.16L580.387 1278.49L616.857 1282.54L643.198 1061.8L641.172 986.869L545.939 980.795Z" fill="#2F2E41"/>
<path d="M545.94 1258.24L531.757 1280.51V1330.29C531.757 1331.72 532.268 1333.11 533.198 1334.2C534.127 1335.29 535.416 1336.02 536.832 1336.25C543.784 1337.39 555.888 1338.2 560.124 1331.14C566.202 1321.02 562.15 1298.74 562.15 1298.74C562.15 1298.74 570.255 1282.54 566.202 1270.39C562.15 1258.24 558.097 1256.21 558.097 1256.21L545.94 1258.24Z" fill="#2F2E41"/>
<path d="M606.726 1278.49L610.778 1284.56C610.778 1284.56 616.857 1290.64 612.804 1294.69C609.83 1297.84 607.119 1301.22 604.699 1304.82C604.699 1304.82 582.411 1310.89 582.411 1302.79V1276.46L606.726 1278.49Z" fill="#2F2E41"/>
<path d="M599.424 815.97C614.257 815.97 626.282 803.952 626.282 789.126C626.282 774.3 614.257 762.281 599.424 762.281C584.59 762.281 572.565 774.3 572.565 789.126C572.565 803.952 584.59 815.97 599.424 815.97Z" fill="#A0616A"/>
<path d="M581.398 797.52L579.372 835.998L615.843 838.023L613.817 799.544L581.398 797.52Z" fill="#A0616A"/>
<path d="M620.909 839.035L615.157 824.991C615.157 824.991 588.49 814.733 580.385 824.859L576.333 837.01L543.914 828.909L525.678 869.412L541.888 984.844C541.888 984.844 584.438 1039.52 641.171 986.869L657.381 877.512L645.224 834.985L620.909 839.035Z" fill="#575A89"/>
<path d="M641.172 843.086L645.224 834.985L685.749 810.682L710.48 737.515L729.617 745.712L708.035 832.96L649.276 887.637L641.172 843.086Z" fill="#575A89"/>
<path d="M547.965 832.96L543.913 828.91L501.363 802.583L470.97 741.829L446.657 749.928L472.996 824.858L537.836 877.513L547.965 832.96Z" fill="#575A89"/>
<path d="M619.358 748.016L623.749 745.822L617.162 743.627V741.433C617.162 741.433 584.226 728.265 579.835 750.211C574.168 757.822 571.107 767.058 571.107 776.546C571.107 786.034 574.168 795.269 579.835 802.881V809.464L614.966 813.853L619.358 800.686C619.358 800.686 641.315 761.184 619.358 748.016Z" fill="#2F2E41"/>
<path d="M759.107 248.402H277.94V524.382H759.107V248.402Z" fill="#E6E6E6"/>
<path d="M1710.55 795.789L1712.78 781.416C1712.78 781.416 1725.77 751.891 1715.5 750.3C1705.23 748.708 1696.66 776.816 1696.66 776.816L1700.42 806.835L1710.55 795.789Z" fill="#FFB8B8"/>
<path d="M1815.71 877.264L1723.91 858.834L1713.24 792L1686.22 789.915L1687.54 876.324L1767.3 918.123L1815.71 877.264Z" fill="#575A89"/>
<path opacity="0.2" d="M1815.71 877.264L1723.91 858.834L1713.24 792L1686.22 789.915L1687.54 876.324L1767.3 918.123L1815.71 877.264Z" fill="black"/>
<path d="M1565.95 778.112H1847.72V756.108H1565.95V778.112Z" fill="#2262B6"/>
<path d="M1692.61 790.861L1692.63 776.317C1692.63 776.317 1700.98 745.162 1690.59 745.149C1680.2 745.136 1676 774.219 1676 774.219L1684.28 803.317L1692.61 790.861Z" fill="#FFB8B8"/>
<path d="M1812.11 832.517L1824.71 829.448C1829.52 829.454 1834.27 828.392 1838.61 826.339C1842.96 824.285 1846.79 821.292 1849.84 817.576C1852.88 813.859 1855.07 809.513 1856.22 804.85C1857.38 800.188 1857.49 795.326 1856.54 790.617V790.617C1856.55 785.053 1855.46 779.543 1853.33 774.401C1851.21 769.258 1848.09 764.584 1844.16 760.645C1840.23 756.706 1835.56 753.58 1830.42 751.444C1825.28 749.309 1819.77 748.206 1814.2 748.199V748.199C1808.64 748.192 1803.13 749.281 1797.98 751.403C1792.83 753.526 1788.16 756.641 1784.22 760.57C1780.28 764.499 1777.15 769.165 1775.01 774.302C1772.87 779.439 1771.77 784.947 1771.76 790.51V790.51C1770.13 796.177 1770.02 802.173 1771.44 807.896C1772.86 813.62 1775.75 818.871 1779.84 823.124C1783.93 827.378 1789.06 830.484 1794.72 832.132C1800.39 833.78 1806.38 833.913 1812.11 832.517Z" fill="#2F2E41"/>
<path d="M1738.03 1042.32L1748.28 1154.54L1766.85 1264.68L1798.03 1264.72L1794.01 1156.67L1777.55 1025.75L1738.03 1042.32Z" fill="#2F2E41"/>
<path d="M1771.02 1258.45L1750.21 1270.89C1750.21 1270.89 1716.95 1275.01 1723.17 1285.4C1729.39 1295.8 1802.16 1289.66 1802.17 1285.5C1802.17 1281.35 1800.12 1258.49 1795.96 1258.48L1771.02 1258.45Z" fill="#2F2E41"/>
<path d="M1830.07 1032.63C1830.07 1032.63 1829.49 1048.67 1814.91 1073.59L1816.89 1150.47L1891.61 1246.14L1864.55 1268.96L1773.21 1164.96L1750.5 1040.26L1779.64 1011.21L1830.07 1032.63Z" fill="#2F2E41"/>
<path d="M1885.37 1246.13C1885.37 1246.13 1910.31 1250.32 1906.14 1260.7C1901.97 1271.08 1891.51 1318.86 1864.5 1312.59C1864.5 1312.59 1852.02 1312.58 1856.19 1304.27C1858.7 1299.27 1861.48 1294.42 1864.53 1289.74L1864.56 1262.73L1885.37 1246.13Z" fill="#2F2E41"/>
<path d="M1798.62 834.627C1815.84 834.627 1829.8 820.674 1829.8 803.461C1829.8 786.248 1815.84 772.295 1798.62 772.295C1781.39 772.295 1767.43 786.248 1767.43 803.461C1767.43 820.674 1781.39 834.627 1798.62 834.627Z" fill="#FFB8B8"/>
<path d="M1813.14 824.257L1813.1 859.577L1779.83 859.536L1784.04 824.221L1813.14 824.257Z" fill="#FFB8B8"/>
<path d="M1771.54 847.06L1781.61 844.585L1813.11 847.112C1813.11 847.112 1829.72 863.755 1827.64 867.907C1825.55 872.06 1815.03 973.857 1815.03 973.857L1833.65 1046.6L1767.12 1050.67L1733.87 1046.48L1740.27 915.586C1740.27 915.586 1725.76 880.246 1744.48 869.881C1755.06 864.336 1764.29 856.547 1771.54 847.06V847.06Z" fill="#575A89"/>
<path d="M1808.94 855.418L1715.4 851.145L1694.7 786.71L1667.67 788.751L1682.11 873.958L1767.31 903.154L1808.94 855.418Z" fill="#575A89"/>
<path d="M1858.81 780.5C1869.92 780.5 1878.93 771.497 1878.93 760.392C1878.93 749.287 1869.92 740.284 1858.81 740.284C1847.7 740.284 1838.69 749.287 1838.69 760.392C1838.69 771.497 1847.7 780.5 1858.81 780.5Z" fill="#2F2E41"/>
<path d="M1840.24 749.582C1840.25 746.608 1840.91 743.671 1842.19 740.984C1843.46 738.296 1845.32 735.926 1847.62 734.042C1849.92 732.159 1852.62 730.81 1855.5 730.093C1858.39 729.376 1861.4 729.308 1864.32 729.895C1861.75 728.679 1858.94 728.024 1856.1 727.972C1853.25 727.92 1850.43 728.473 1847.81 729.594C1845.19 730.715 1842.84 732.378 1840.92 734.474C1838.99 736.57 1837.53 739.051 1836.64 741.752C1835.75 744.454 1835.44 747.314 1835.73 750.145C1836.02 752.975 1836.92 755.71 1838.35 758.17C1839.78 760.63 1841.72 762.758 1844.03 764.414C1846.35 766.069 1848.99 767.215 1851.78 767.774C1848.33 766.148 1845.41 763.575 1843.37 760.353C1841.32 757.132 1840.24 753.396 1840.24 749.582V749.582Z" fill="#2F2E41"/>
<path d="M1822.99 760.986L1795.86 755.995L1775 769.061C1769.88 772.273 1765.78 776.888 1763.19 782.358C1760.61 787.828 1759.65 793.924 1760.43 799.923L1781.32 794.631L1786 782.907L1791.57 792.034L1814.17 831.53L1837.05 819.092L1851.63 796.255L1822.99 760.986Z" fill="#2F2E41"/>
<path d="M279.301 246.032L276.58 250.771L757.747 526.751L760.468 522.012L279.301 246.032Z" fill="white"/>
<path d="M757.758 246.051L276.569 521.994L279.29 526.733L760.478 250.79L757.758 246.051Z" fill="white"/>
<path d="M1398.04 377.629L1394.17 381.493L1550.01 537.244L1553.87 533.38L1398.04 377.629Z" fill="white"/>
<path d="M1550.01 377.629L1394.17 533.38L1398.04 537.244L1553.87 381.493L1550.01 377.629Z" fill="white"/>
</svg>
